<svg xmlns="http://www.w3.org/2000/svg" xmlns:xlink="http://www.w3.org/1999/xlink" width="500" zoomAndPan="magnify" viewBox="0 0 375 374.999991" height="500" preserveAspectRatio="xMidYMid meet" version="1.0"><rect x="-37.5" width="450" fill="#ffffff" y="-37.499999" height="449.999989" fill-opacity="1"/><rect x="-37.5" width="450" fill="#ffffff" y="-37.499999" height="449.999989" fill-opacity="1"/><rect x="-37.5" width="450" fill="#ffffff" y="-37.499999" height="449.999989" fill-opacity="1"/><path fill="#2d4356" d="M 325.894531 125.582031 L 49.105469 125.582031 C 48.8125 125.582031 48.523438 125.609375 48.234375 125.667969 C 47.949219 125.722656 47.667969 125.808594 47.398438 125.921875 C 47.128906 126.03125 46.871094 126.167969 46.625 126.332031 C 46.382812 126.496094 46.15625 126.679688 45.949219 126.886719 C 45.742188 127.09375 45.558594 127.320312 45.394531 127.5625 C 45.230469 127.808594 45.09375 128.066406 44.984375 128.335938 C 44.871094 128.605469 44.785156 128.886719 44.730469 129.171875 C 44.671875 129.460938 44.644531 129.75 44.644531 130.042969 C 44.644531 130.335938 44.671875 130.628906 44.730469 130.914062 C 44.785156 131.203125 44.871094 131.480469 44.984375 131.753906 C 45.09375 132.023438 45.230469 132.28125 45.394531 132.523438 C 45.558594 132.769531 45.742188 132.992188 45.949219 133.203125 C 46.15625 133.410156 46.382812 133.59375 46.625 133.757812 C 46.871094 133.917969 47.128906 134.058594 47.398438 134.167969 C 47.667969 134.28125 47.949219 134.367188 48.234375 134.421875 C 48.523438 134.480469 48.8125 134.507812 49.105469 134.507812 L 325.894531 134.507812 C 326.1875 134.507812 326.476562 134.480469 326.765625 134.421875 C 327.050781 134.367188 327.332031 134.28125 327.601562 134.167969 C 327.871094 134.058594 328.128906 133.917969 328.371094 133.757812 C 328.617188 133.59375 328.84375 133.410156 329.050781 133.203125 C 329.257812 132.992188 329.441406 132.769531 329.605469 132.523438 C 329.765625 132.28125 329.90625 132.023438 330.015625 131.753906 C 330.128906 131.480469 330.214844 131.203125 330.269531 130.914062 C 330.328125 130.628906 330.355469 130.335938 330.355469 130.042969 C 330.355469 129.75 330.328125 129.460938 330.269531 129.171875 C 330.214844 128.886719 330.128906 128.605469 330.015625 128.335938 C 329.90625 128.066406 329.765625 127.808594 329.605469 127.5625 C 329.441406 127.320312 329.257812 127.09375 329.050781 126.886719 C 328.84375 126.679688 328.617188 126.496094 328.371094 126.332031 C 328.128906 126.167969 327.871094 126.03125 327.601562 125.921875 C 327.332031 125.808594 327.050781 125.722656 326.765625 125.667969 C 326.476562 125.609375 326.1875 125.582031 325.894531 125.582031 Z M 325.894531 125.582031 " fill-opacity="1" fill-rule="nonzero"/><path fill="#004aad" d="M 62.5 143.4375 L 53.570312 143.4375 C 52.984375 143.4375 52.40625 143.496094 51.828125 143.609375 C 51.253906 143.722656 50.695312 143.894531 50.15625 144.117188 C 49.613281 144.339844 49.097656 144.617188 48.609375 144.941406 C 48.125 145.269531 47.671875 145.636719 47.257812 146.050781 C 46.84375 146.46875 46.472656 146.917969 46.148438 147.40625 C 45.820312 147.894531 45.546875 148.40625 45.324219 148.949219 C 45.097656 149.492188 44.929688 150.050781 44.8125 150.625 C 44.699219 151.199219 44.644531 151.78125 44.644531 152.367188 L 44.644531 161.292969 C 44.644531 161.882812 44.699219 162.460938 44.8125 163.035156 C 44.929688 163.613281 45.097656 164.167969 45.324219 164.710938 C 45.546875 165.253906 45.820312 165.769531 46.148438 166.253906 C 46.472656 166.742188 46.84375 167.195312 47.257812 167.609375 C 47.671875 168.023438 48.125 168.394531 48.609375 168.71875 C 49.097656 169.042969 49.613281 169.320312 50.15625 169.542969 C 50.695312 169.769531 51.253906 169.9375 51.828125 170.050781 C 52.40625 170.167969 52.984375 170.222656 53.570312 170.222656 L 62.5 170.222656 C 63.085938 170.222656 63.667969 170.167969 64.242188 170.050781 C 64.816406 169.9375 65.375 169.769531 65.917969 169.542969 C 66.457031 169.320312 66.972656 169.042969 67.460938 168.71875 C 67.949219 168.394531 68.398438 168.023438 68.8125 167.609375 C 69.226562 167.195312 69.597656 166.742188 69.925781 166.253906 C 70.25 165.769531 70.523438 165.253906 70.75 164.710938 C 70.972656 164.167969 71.144531 163.613281 71.257812 163.035156 C 71.371094 162.460938 71.429688 161.882812 71.429688 161.292969 L 71.429688 152.367188 C 71.429688 151.78125 71.371094 151.199219 71.257812 150.625 C 71.144531 150.050781 70.972656 149.492188 70.75 148.949219 C 70.523438 148.40625 70.25 147.894531 69.925781 147.40625 C 69.597656 146.917969 69.226562 146.46875 68.8125 146.050781 C 68.398438 145.636719 67.949219 145.269531 67.460938 144.941406 C 66.972656 144.617188 66.457031 144.339844 65.917969 144.117188 C 65.375 143.894531 64.816406 143.722656 64.242188 143.609375 C 63.667969 143.496094 63.085938 143.4375 62.5 143.4375 Z M 62.5 161.292969 L 53.570312 161.292969 L 53.570312 152.367188 L 62.5 152.367188 Z M 62.5 161.292969 " fill-opacity="1" fill-rule="nonzero"/><path fill="#2d4356" d="M 102.679688 170.222656 C 103.265625 170.222656 103.84375 170.167969 104.421875 170.050781 C 104.996094 169.9375 105.554688 169.769531 106.09375 169.542969 C 106.636719 169.320312 107.152344 169.042969 107.640625 168.71875 C 108.125 168.394531 108.578125 168.023438 108.992188 167.609375 C 109.40625 167.195312 109.777344 166.742188 110.101562 166.253906 C 110.429688 165.769531 110.703125 165.253906 110.925781 164.710938 C 111.152344 164.167969 111.320312 163.613281 111.4375 163.035156 C 111.550781 162.460938 111.605469 161.882812 111.605469 161.292969 L 111.605469 152.367188 C 111.605469 151.78125 111.550781 151.199219 111.4375 150.625 C 111.320312 150.050781 111.152344 149.492188 110.925781 148.949219 C 110.703125 148.40625 110.429688 147.894531 110.101562 147.40625 C 109.777344 146.917969 109.40625 146.46875 108.992188 146.050781 C 108.578125 145.636719 108.125 145.269531 107.640625 144.941406 C 107.152344 144.617188 106.636719 144.339844 106.09375 144.117188 C 105.554688 143.894531 104.996094 143.722656 104.421875 143.609375 C 103.84375 143.496094 103.265625 143.4375 102.679688 143.4375 L 93.75 143.4375 C 93.164062 143.4375 92.582031 143.496094 92.007812 143.609375 C 91.433594 143.722656 90.875 143.894531 90.332031 144.117188 C 89.792969 144.339844 89.277344 144.617188 88.789062 144.941406 C 88.300781 145.269531 87.851562 145.636719 87.4375 146.050781 C 87.023438 146.46875 86.652344 146.917969 86.324219 147.40625 C 86 147.894531 85.726562 148.40625 85.5 148.949219 C 85.277344 149.492188 85.105469 150.050781 84.992188 150.625 C 84.878906 151.199219 84.820312 151.78125 84.820312 152.367188 L 84.820312 161.292969 C 84.820312 161.882812 84.878906 162.460938 84.992188 163.035156 C 85.105469 163.613281 85.277344 164.167969 85.5 164.710938 C 85.726562 165.253906 86 165.769531 86.324219 166.253906 C 86.652344 166.742188 87.023438 167.195312 87.4375 167.609375 C 87.851562 168.023438 88.300781 168.394531 88.789062 168.71875 C 89.277344 169.042969 89.792969 169.320312 90.332031 169.542969 C 90.875 169.769531 91.433594 169.9375 92.007812 170.050781 C 92.582031 170.167969 93.164062 170.222656 93.75 170.222656 Z M 93.75 152.367188 L 102.679688 152.367188 L 102.679688 161.292969 L 93.75 161.292969 Z M 93.75 152.367188 " fill-opacity="1" fill-rule="nonzero"/><path fill="#004aad" d="M 142.855469 170.222656 C 143.445312 170.222656 144.023438 170.167969 144.597656 170.050781 C 145.175781 169.9375 145.730469 169.769531 146.273438 169.542969 C 146.816406 169.320312 147.332031 169.042969 147.816406 168.71875 C 148.304688 168.394531 148.757812 168.023438 149.171875 167.609375 C 149.585938 167.195312 149.957031 166.742188 150.28125 166.253906 C 150.605469 165.769531 150.882812 165.253906 151.105469 164.710938 C 151.332031 164.167969 151.5 163.613281 151.613281 163.035156 C 151.726562 162.460938 151.785156 161.882812 151.785156 161.292969 L 151.785156 152.367188 C 151.785156 151.78125 151.726562 151.199219 151.613281 150.625 C 151.5 150.050781 151.332031 149.492188 151.105469 148.949219 C 150.882812 148.40625 150.605469 147.894531 150.28125 147.40625 C 149.957031 146.917969 149.585938 146.46875 149.171875 146.050781 C 148.757812 145.636719 148.304688 145.269531 147.816406 144.941406 C 147.332031 144.617188 146.816406 144.339844 146.273438 144.117188 C 145.730469 143.894531 145.175781 143.722656 144.597656 143.609375 C 144.023438 143.496094 143.445312 143.4375 142.855469 143.4375 L 133.929688 143.4375 C 133.34375 143.4375 132.761719 143.496094 132.1875 143.609375 C 131.613281 143.722656 131.054688 143.894531 130.511719 144.117188 C 129.96875 144.339844 129.457031 144.617188 128.96875 144.941406 C 128.480469 145.269531 128.03125 145.636719 127.613281 146.050781 C 127.199219 146.46875 126.832031 146.917969 126.503906 147.40625 C 126.179688 147.894531 125.902344 148.40625 125.679688 148.949219 C 125.457031 149.492188 125.285156 150.050781 125.171875 150.625 C 125.058594 151.199219 125 151.78125 125 152.367188 L 125 161.292969 C 125 161.882812 125.058594 162.460938 125.171875 163.035156 C 125.285156 163.613281 125.457031 164.167969 125.679688 164.710938 C 125.902344 165.253906 126.179688 165.769531 126.503906 166.253906 C 126.832031 166.742188 127.199219 167.195312 127.613281 167.609375 C 128.03125 168.023438 128.480469 168.394531 128.96875 168.71875 C 129.457031 169.042969 129.96875 169.320312 130.511719 169.542969 C 131.054688 169.769531 131.613281 169.9375 132.1875 170.050781 C 132.761719 170.167969 133.34375 170.222656 133.929688 170.222656 Z M 133.929688 152.367188 L 142.855469 152.367188 L 142.855469 161.292969 L 133.929688 161.292969 Z M 133.929688 152.367188 " fill-opacity="1" fill-rule="nonzero"/><path fill="#2d4356" d="M 183.035156 170.222656 C 183.621094 170.222656 184.203125 170.167969 184.777344 170.050781 C 185.351562 169.9375 185.910156 169.769531 186.453125 169.542969 C 186.992188 169.320312 187.507812 169.042969 187.996094 168.71875 C 188.484375 168.394531 188.933594 168.023438 189.347656 167.609375 C 189.765625 167.195312 190.132812 166.742188 190.460938 166.253906 C 190.785156 165.769531 191.058594 165.253906 191.285156 164.710938 C 191.507812 164.167969 191.679688 163.613281 191.792969 163.035156 C 191.90625 162.460938 191.964844 161.882812 191.964844 161.292969 L 191.964844 152.367188 C 191.964844 151.78125 191.90625 151.199219 191.792969 150.625 C 191.679688 150.050781 191.507812 149.492188 191.285156 148.949219 C 191.058594 148.40625 190.785156 147.894531 190.460938 147.40625 C 190.132812 146.917969 189.765625 146.46875 189.347656 146.050781 C 188.933594 145.636719 188.484375 145.269531 187.996094 144.941406 C 187.507812 144.617188 186.992188 144.339844 186.453125 144.117188 C 185.910156 143.894531 185.351562 143.722656 184.777344 143.609375 C 184.203125 143.496094 183.621094 143.4375 183.035156 143.4375 L 174.105469 143.4375 C 173.519531 143.4375 172.941406 143.496094 172.367188 143.609375 C 171.789062 143.722656 171.230469 143.894531 170.691406 144.117188 C 170.148438 144.339844 169.632812 144.617188 169.148438 144.941406 C 168.660156 145.269531 168.207031 145.636719 167.792969 146.050781 C 167.378906 146.46875 167.007812 146.917969 166.683594 147.40625 C 166.359375 147.894531 166.082031 148.40625 165.859375 148.949219 C 165.632812 149.492188 165.464844 150.050781 165.351562 150.625 C 165.234375 151.199219 165.179688 151.78125 165.179688 152.367188 L 165.179688 161.292969 C 165.179688 161.882812 165.234375 162.460938 165.351562 163.035156 C 165.464844 163.613281 165.632812 164.167969 165.859375 164.710938 C 166.082031 165.253906 166.359375 165.769531 166.683594 166.253906 C 167.007812 166.742188 167.378906 167.195312 167.792969 167.609375 C 168.207031 168.023438 168.660156 168.394531 169.148438 168.71875 C 169.632812 169.042969 170.148438 169.320312 170.691406 169.542969 C 171.230469 169.769531 171.789062 169.9375 172.363281 170.050781 C 172.941406 170.167969 173.519531 170.222656 174.105469 170.222656 Z M 174.105469 152.367188 L 183.035156 152.367188 L 183.035156 161.292969 L 174.105469 161.292969 Z M 174.105469 152.367188 " fill-opacity="1" fill-rule="nonzero"/><path fill="#004aad" d="M 223.214844 170.222656 C 223.800781 170.222656 224.382812 170.167969 224.957031 170.050781 C 225.53125 169.9375 226.089844 169.769531 226.632812 169.542969 C 227.171875 169.320312 227.6875 169.042969 228.175781 168.71875 C 228.664062 168.394531 229.113281 168.023438 229.527344 167.609375 C 229.941406 167.195312 230.3125 166.742188 230.636719 166.253906 C 230.964844 165.769531 231.238281 165.253906 231.464844 164.710938 C 231.6875 164.167969 231.855469 163.613281 231.972656 163.035156 C 232.085938 162.460938 232.144531 161.882812 232.144531 161.292969 L 232.144531 152.367188 C 232.144531 151.78125 232.085938 151.199219 231.972656 150.625 C 231.855469 150.050781 231.6875 149.492188 231.464844 148.949219 C 231.238281 148.40625 230.964844 147.894531 230.636719 147.40625 C 230.3125 146.917969 229.941406 146.46875 229.527344 146.050781 C 229.113281 145.636719 228.664062 145.269531 228.175781 144.941406 C 227.6875 144.617188 227.171875 144.339844 226.632812 144.117188 C 226.089844 143.894531 225.53125 143.722656 224.957031 143.609375 C 224.382812 143.496094 223.800781 143.4375 223.214844 143.4375 L 214.285156 143.4375 C 213.699219 143.4375 213.117188 143.496094 212.542969 143.609375 C 211.96875 143.722656 211.410156 143.894531 210.867188 144.117188 C 210.328125 144.339844 209.8125 144.617188 209.324219 144.941406 C 208.835938 145.269531 208.386719 145.636719 207.972656 146.050781 C 207.558594 146.46875 207.1875 146.917969 206.863281 147.40625 C 206.535156 147.894531 206.261719 148.40625 206.035156 148.949219 C 205.8125 149.492188 205.644531 150.050781 205.527344 150.625 C 205.414062 151.199219 205.355469 151.78125 205.355469 152.367188 L 205.355469 161.292969 C 205.355469 161.882812 205.414062 162.460938 205.527344 163.035156 C 205.644531 163.613281 205.8125 164.167969 206.035156 164.710938 C 206.261719 165.253906 206.535156 165.769531 206.863281 166.253906 C 207.1875 166.742188 207.558594 167.195312 207.972656 167.609375 C 208.386719 168.023438 208.835938 168.394531 209.324219 168.71875 C 209.8125 169.042969 210.328125 169.320312 210.867188 169.542969 C 211.410156 169.769531 211.96875 169.9375 212.542969 170.050781 C 213.117188 170.167969 213.699219 170.222656 214.285156 170.222656 Z M 214.285156 152.367188 L 223.214844 152.367188 L 223.214844 161.292969 L 214.285156 161.292969 Z M 214.285156 152.367188 " fill-opacity="1" fill-rule="nonzero"/><path fill="#2d4356" d="M 263.394531 170.222656 C 263.980469 170.222656 264.558594 170.167969 265.132812 170.050781 C 265.710938 169.9375 266.269531 169.769531 266.808594 169.542969 C 267.351562 169.320312 267.867188 169.042969 268.351562 168.71875 C 268.839844 168.394531 269.292969 168.023438 269.707031 167.609375 C 270.121094 167.195312 270.492188 166.742188 270.816406 166.253906 C 271.140625 165.769531 271.417969 165.253906 271.640625 164.710938 C 271.867188 164.167969 272.035156 163.613281 272.148438 163.035156 C 272.265625 162.460938 272.320312 161.882812 272.320312 161.292969 L 272.320312 152.367188 C 272.320312 151.78125 272.265625 151.199219 272.148438 150.625 C 272.035156 150.050781 271.867188 149.492188 271.640625 148.949219 C 271.417969 148.40625 271.140625 147.894531 270.816406 147.40625 C 270.492188 146.917969 270.121094 146.46875 269.707031 146.050781 C 269.292969 145.636719 268.839844 145.269531 268.351562 144.941406 C 267.867188 144.617188 267.351562 144.339844 266.808594 144.117188 C 266.269531 143.894531 265.710938 143.722656 265.132812 143.609375 C 264.558594 143.496094 263.980469 143.4375 263.394531 143.4375 L 254.464844 143.4375 C 253.878906 143.4375 253.296875 143.496094 252.722656 143.609375 C 252.148438 143.722656 251.589844 143.894531 251.046875 144.117188 C 250.503906 144.339844 249.992188 144.617188 249.503906 144.941406 C 249.015625 145.269531 248.566406 145.636719 248.152344 146.050781 C 247.734375 146.46875 247.367188 146.917969 247.039062 147.40625 C 246.714844 147.894531 246.441406 148.40625 246.214844 148.949219 C 245.992188 149.492188 245.820312 150.050781 245.707031 150.625 C 245.59375 151.199219 245.535156 151.78125 245.535156 152.367188 L 245.535156 161.292969 C 245.535156 161.882812 245.59375 162.460938 245.707031 163.035156 C 245.820312 163.613281 245.992188 164.167969 246.214844 164.710938 C 246.441406 165.253906 246.714844 165.769531 247.039062 166.253906 C 247.367188 166.742188 247.734375 167.195312 248.152344 167.609375 C 248.566406 168.023438 249.015625 168.394531 249.503906 168.71875 C 249.992188 169.042969 250.503906 169.320312 251.046875 169.542969 C 251.589844 169.769531 252.148438 169.9375 252.722656 170.050781 C 253.296875 170.167969 253.878906 170.222656 254.464844 170.222656 Z M 254.464844 152.367188 L 263.394531 152.367188 L 263.394531 161.292969 L 254.464844 161.292969 Z M 254.464844 152.367188 " fill-opacity="1" fill-rule="nonzero"/><path fill="#004aad" d="M 303.570312 170.222656 C 304.15625 170.222656 304.738281 170.167969 305.3125 170.050781 C 305.886719 169.9375 306.445312 169.769531 306.988281 169.542969 C 307.53125 169.320312 308.042969 169.042969 308.53125 168.71875 C 309.019531 168.394531 309.46875 168.023438 309.886719 167.609375 C 310.300781 167.195312 310.667969 166.742188 310.996094 166.253906 C 311.320312 165.769531 311.597656 165.253906 311.820312 164.710938 C 312.042969 164.167969 312.214844 163.613281 312.328125 163.035156 C 312.441406 162.460938 312.5 161.882812 312.5 161.292969 L 312.5 152.367188 C 312.5 151.78125 312.441406 151.199219 312.328125 150.625 C 312.214844 150.050781 312.042969 149.492188 311.820312 148.949219 C 311.597656 148.40625 311.320312 147.894531 310.996094 147.40625 C 310.667969 146.917969 310.300781 146.46875 309.886719 146.050781 C 309.46875 145.636719 309.019531 145.269531 308.53125 144.941406 C 308.042969 144.617188 307.53125 144.339844 306.988281 144.117188 C 306.445312 143.894531 305.886719 143.722656 305.3125 143.609375 C 304.738281 143.496094 304.15625 143.4375 303.570312 143.4375 L 294.644531 143.4375 C 294.054688 143.4375 293.476562 143.496094 292.902344 143.609375 C 292.324219 143.722656 291.769531 143.894531 291.226562 144.117188 C 290.683594 144.339844 290.167969 144.617188 289.683594 144.941406 C 289.195312 145.269531 288.742188 145.636719 288.328125 146.050781 C 287.914062 146.46875 287.542969 146.917969 287.21875 147.40625 C 286.894531 147.894531 286.617188 148.40625 286.394531 148.949219 C 286.167969 149.492188 286 150.050781 285.886719 150.625 C 285.769531 151.199219 285.714844 151.78125 285.714844 152.367188 L 285.714844 161.292969 C 285.714844 161.882812 285.769531 162.460938 285.886719 163.035156 C 286 163.613281 286.167969 164.167969 286.394531 164.710938 C 286.617188 165.253906 286.894531 165.769531 287.21875 166.253906 C 287.542969 166.742188 287.914062 167.195312 288.328125 167.609375 C 288.742188 168.023438 289.195312 168.394531 289.683594 168.71875 C 290.167969 169.042969 290.683594 169.320312 291.226562 169.542969 C 291.769531 169.769531 292.324219 169.9375 292.902344 170.050781 C 293.476562 170.167969 294.054688 170.222656 294.644531 170.222656 Z M 294.644531 152.367188 L 303.570312 152.367188 L 303.570312 161.292969 L 294.644531 161.292969 Z M 294.644531 152.367188 " fill-opacity="1" fill-rule="nonzero"/><path fill="#2d4356" d="M 151.621094 255.042969 L 49.105469 255.042969 C 48.8125 255.042969 48.523438 255.074219 48.234375 255.128906 C 47.949219 255.1875 47.667969 255.273438 47.398438 255.382812 C 47.128906 255.496094 46.871094 255.632812 46.625 255.796875 C 46.382812 255.960938 46.15625 256.144531 45.949219 256.351562 C 45.742188 256.558594 45.558594 256.785156 45.394531 257.027344 C 45.230469 257.273438 45.09375 257.53125 44.984375 257.800781 C 44.871094 258.070312 44.785156 258.351562 44.730469 258.636719 C 44.671875 258.925781 44.644531 259.214844 44.644531 259.507812 C 44.644531 259.800781 44.671875 260.09375 44.730469 260.378906 C 44.785156 260.667969 44.871094 260.945312 44.984375 261.21875 C 45.09375 261.488281 45.230469 261.746094 45.394531 261.988281 C 45.558594 262.234375 45.742188 262.457031 45.949219 262.664062 C 46.15625 262.871094 46.382812 263.058594 46.625 263.222656 C 46.871094 263.382812 47.128906 263.519531 47.398438 263.632812 C 47.667969 263.746094 47.949219 263.832031 48.234375 263.886719 C 48.523438 263.945312 48.8125 263.972656 49.105469 263.972656 L 162.789062 263.972656 C 158.632812 261.542969 154.910156 258.566406 151.621094 255.042969 Z M 325.894531 255.042969 L 223.378906 255.042969 C 220.089844 258.566406 216.367188 261.542969 212.210938 263.972656 L 325.894531 263.972656 C 326.1875 263.972656 326.476562 263.945312 326.765625 263.886719 C 327.050781 263.832031 327.332031 263.746094 327.601562 263.632812 C 327.871094 263.519531 328.128906 263.382812 328.371094 263.222656 C 328.617188 263.058594 328.84375 262.871094 329.050781 262.664062 C 329.257812 262.457031 329.441406 262.234375 329.605469 261.988281 C 329.765625 261.746094 329.90625 261.488281 330.015625 261.21875 C 330.128906 260.945312 330.214844 260.667969 330.269531 260.378906 C 330.328125 260.09375 330.355469 259.800781 330.355469 259.507812 C 330.355469 259.214844 330.328125 258.925781 330.269531 258.636719 C 330.214844 258.351562 330.128906 258.070312 330.015625 257.800781 C 329.90625 257.53125 329.765625 257.273438 329.605469 257.027344 C 329.441406 256.785156 329.257812 256.558594 329.050781 256.351562 C 328.84375 256.144531 328.617188 255.960938 328.371094 255.796875 C 328.128906 255.632812 327.871094 255.496094 327.601562 255.382812 C 327.332031 255.273438 327.050781 255.1875 326.765625 255.128906 C 326.476562 255.074219 326.1875 255.042969 325.894531 255.042969 Z M 44.644531 183.617188 C 44.644531 183.910156 44.671875 184.199219 44.730469 184.488281 C 44.785156 184.773438 44.871094 185.054688 44.984375 185.324219 C 45.09375 185.59375 45.230469 185.851562 45.394531 186.097656 C 45.558594 186.339844 45.742188 186.566406 45.949219 186.773438 C 46.15625 186.980469 46.382812 187.164062 46.625 187.328125 C 46.871094 187.492188 47.128906 187.628906 47.398438 187.742188 C 47.667969 187.851562 47.949219 187.9375 48.234375 187.996094 C 48.523438 188.050781 48.8125 188.082031 49.105469 188.082031 L 151.621094 188.082031 C 154.910156 184.558594 158.632812 181.582031 162.789062 179.152344 L 49.105469 179.152344 C 48.8125 179.152344 48.523438 179.179688 48.234375 179.238281 C 47.949219 179.292969 47.667969 179.378906 47.398438 179.492188 C 47.128906 179.605469 46.871094 179.742188 46.625 179.902344 C 46.382812 180.066406 46.15625 180.253906 45.949219 180.460938 C 45.742188 180.667969 45.558594 180.890625 45.394531 181.136719 C 45.230469 181.378906 45.09375 181.636719 44.984375 181.90625 C 44.871094 182.179688 44.785156 182.457031 44.730469 182.746094 C 44.671875 183.03125 44.644531 183.324219 44.644531 183.617188 Z M 325.894531 179.152344 L 212.210938 179.152344 C 216.367188 181.582031 220.089844 184.558594 223.378906 188.082031 L 325.894531 188.082031 C 326.1875 188.082031 326.476562 188.050781 326.765625 187.996094 C 327.050781 187.9375 327.332031 187.851562 327.601562 187.742188 C 327.871094 187.628906 328.128906 187.492188 328.371094 187.328125 C 328.617188 187.164062 328.84375 186.980469 329.050781 186.773438 C 329.257812 186.566406 329.441406 186.339844 329.605469 186.097656 C 329.765625 185.851562 329.90625 185.59375 330.015625 185.324219 C 330.128906 185.054688 330.214844 184.773438 330.269531 184.488281 C 330.328125 184.199219 330.355469 183.910156 330.355469 183.617188 C 330.355469 183.324219 330.328125 183.03125 330.269531 182.746094 C 330.214844 182.457031 330.128906 182.179688 330.015625 181.90625 C 329.90625 181.636719 329.765625 181.378906 329.605469 181.136719 C 329.441406 180.890625 329.257812 180.667969 329.050781 180.460938 C 328.84375 180.253906 328.617188 180.066406 328.371094 179.902344 C 328.128906 179.742188 327.871094 179.605469 327.601562 179.492188 C 327.332031 179.378906 327.050781 179.292969 326.765625 179.238281 C 326.476562 179.179688 326.1875 179.152344 325.894531 179.152344 Z M 147.320312 221.5625 C 147.320312 222.878906 147.386719 224.191406 147.515625 225.5 C 147.644531 226.808594 147.835938 228.109375 148.09375 229.402344 C 148.351562 230.691406 148.667969 231.964844 149.050781 233.226562 C 149.433594 234.484375 149.875 235.722656 150.378906 236.9375 C 150.882812 238.152344 151.445312 239.34375 152.066406 240.503906 C 152.6875 241.664062 153.363281 242.789062 154.09375 243.882812 C 154.824219 244.980469 155.605469 246.035156 156.441406 247.050781 C 157.277344 248.070312 158.160156 249.042969 159.089844 249.972656 C 160.019531 250.902344 160.992188 251.785156 162.011719 252.621094 C 163.027344 253.457031 164.082031 254.238281 165.179688 254.96875 C 166.273438 255.699219 167.398438 256.375 168.558594 256.996094 C 169.71875 257.617188 170.910156 258.179688 172.125 258.683594 C 173.339844 259.1875 174.578125 259.628906 175.835938 260.011719 C 177.097656 260.394531 178.371094 260.710938 179.660156 260.96875 C 180.953125 261.226562 182.253906 261.417969 183.5625 261.546875 C 184.871094 261.675781 186.183594 261.742188 187.5 261.742188 C 188.816406 261.742188 190.128906 261.675781 191.4375 261.546875 C 192.746094 261.417969 194.046875 261.226562 195.339844 260.96875 C 196.628906 260.710938 197.902344 260.394531 199.164062 260.011719 C 200.421875 259.628906 201.660156 259.1875 202.875 258.683594 C 204.089844 258.179688 205.28125 257.617188 206.441406 256.996094 C 207.601562 256.375 208.726562 255.699219 209.820312 254.96875 C 210.917969 254.238281 211.972656 253.457031 212.988281 252.621094 C 214.007812 251.785156 214.980469 250.902344 215.910156 249.972656 C 216.839844 249.042969 217.722656 248.070312 218.558594 247.050781 C 219.394531 246.035156 220.175781 244.980469 220.90625 243.882812 C 221.636719 242.789062 222.3125 241.664062 222.933594 240.503906 C 223.554688 239.34375 224.117188 238.152344 224.621094 236.9375 C 225.125 235.722656 225.566406 234.484375 225.949219 233.226562 C 226.332031 231.964844 226.648438 230.691406 226.90625 229.402344 C 227.164062 228.109375 227.355469 226.808594 227.484375 225.5 C 227.613281 224.191406 227.679688 222.878906 227.679688 221.5625 C 227.679688 220.246094 227.613281 218.933594 227.484375 217.625 C 227.355469 216.316406 227.164062 215.015625 226.90625 213.722656 C 226.648438 212.433594 226.332031 211.160156 225.949219 209.898438 C 225.566406 208.640625 225.125 207.402344 224.621094 206.1875 C 224.117188 204.972656 223.554688 203.78125 222.933594 202.621094 C 222.3125 201.460938 221.636719 200.335938 220.90625 199.242188 C 220.175781 198.144531 219.394531 197.089844 218.558594 196.074219 C 217.722656 195.054688 216.839844 194.082031 215.910156 193.152344 C 214.980469 192.222656 214.007812 191.339844 212.988281 190.503906 C 211.972656 189.667969 210.917969 188.886719 209.820312 188.15625 C 208.726562 187.425781 207.601562 186.75 206.441406 186.128906 C 205.28125 185.507812 204.089844 184.945312 202.875 184.441406 C 201.660156 183.9375 200.421875 183.496094 199.164062 183.113281 C 197.902344 182.730469 196.628906 182.414062 195.339844 182.15625 C 194.046875 181.898438 192.746094 181.707031 191.4375 181.578125 C 190.128906 181.449219 188.816406 181.382812 187.5 181.382812 C 186.183594 181.386719 184.871094 181.453125 183.5625 181.582031 C 182.253906 181.710938 180.953125 181.90625 179.664062 182.164062 C 178.375 182.421875 177.101562 182.742188 175.839844 183.125 C 174.582031 183.507812 173.347656 183.949219 172.132812 184.453125 C 170.917969 184.957031 169.730469 185.519531 168.570312 186.140625 C 167.410156 186.761719 166.28125 187.4375 165.1875 188.167969 C 164.09375 188.898438 163.039062 189.683594 162.023438 190.519531 C 161.007812 191.351562 160.03125 192.234375 159.101562 193.164062 C 158.171875 194.09375 157.289062 195.070312 156.457031 196.085938 C 155.621094 197.101562 154.835938 198.15625 154.105469 199.25 C 153.375 200.34375 152.699219 201.472656 152.078125 202.632812 C 151.457031 203.792969 150.894531 204.980469 150.390625 206.195312 C 149.886719 207.410156 149.445312 208.644531 149.0625 209.902344 C 148.679688 211.164062 148.359375 212.4375 148.101562 213.726562 C 147.84375 215.015625 147.648438 216.316406 147.519531 217.625 C 147.390625 218.933594 147.324219 220.246094 147.320312 221.5625 Z M 187.5 190.3125 C 188.523438 190.3125 189.542969 190.363281 190.5625 190.464844 C 191.582031 190.5625 192.59375 190.714844 193.597656 190.914062 C 194.601562 191.113281 195.59375 191.359375 196.570312 191.65625 C 197.550781 191.957031 198.511719 192.300781 199.457031 192.691406 C 200.40625 193.082031 201.328125 193.519531 202.230469 194.003906 C 203.132812 194.484375 204.011719 195.011719 204.863281 195.578125 C 205.710938 196.148438 206.535156 196.757812 207.324219 197.40625 C 208.117188 198.054688 208.875 198.742188 209.597656 199.464844 C 210.320312 200.1875 211.007812 200.945312 211.65625 201.738281 C 212.304688 202.527344 212.914062 203.351562 213.484375 204.199219 C 214.050781 205.050781 214.578125 205.929688 215.058594 206.832031 C 215.542969 207.734375 215.980469 208.65625 216.371094 209.605469 C 216.761719 210.550781 217.105469 211.511719 217.40625 212.492188 C 217.703125 213.46875 217.949219 214.460938 218.148438 215.464844 C 218.347656 216.46875 218.5 217.480469 218.597656 218.5 C 218.699219 219.519531 218.75 220.539062 218.75 221.5625 C 218.75 222.585938 218.699219 223.605469 218.597656 224.625 C 218.5 225.644531 218.347656 226.65625 218.148438 227.660156 C 217.949219 228.664062 217.703125 229.65625 217.40625 230.632812 C 217.105469 231.613281 216.761719 232.574219 216.371094 233.519531 C 215.980469 234.46875 215.542969 235.390625 215.058594 236.292969 C 214.578125 237.195312 214.050781 238.074219 213.484375 238.925781 C 212.914062 239.773438 212.304688 240.597656 211.65625 241.386719 C 211.007812 242.179688 210.320312 242.9375 209.597656 243.660156 C 208.875 244.382812 208.117188 245.070312 207.324219 245.71875 C 206.535156 246.367188 205.710938 246.976562 204.863281 247.546875 C 204.011719 248.113281 203.132812 248.640625 202.230469 249.121094 C 201.328125 249.605469 200.40625 250.042969 199.457031 250.433594 C 198.511719 250.824219 197.550781 251.167969 196.570312 251.46875 C 195.59375 251.765625 194.601562 252.011719 193.597656 252.210938 C 192.59375 252.410156 191.582031 252.5625 190.5625 252.660156 C 189.542969 252.761719 188.523438 252.8125 187.5 252.8125 C 186.476562 252.8125 185.457031 252.761719 184.4375 252.660156 C 183.417969 252.5625 182.40625 252.410156 181.402344 252.210938 C 180.398438 252.011719 179.40625 251.765625 178.429688 251.46875 C 177.449219 251.167969 176.488281 250.824219 175.542969 250.433594 C 174.59375 250.042969 173.671875 249.605469 172.769531 249.121094 C 171.867188 248.640625 170.988281 248.113281 170.136719 247.546875 C 169.289062 246.976562 168.464844 246.367188 167.675781 245.71875 C 166.882812 245.070312 166.125 244.382812 165.402344 243.660156 C 164.679688 242.9375 163.992188 242.179688 163.34375 241.386719 C 162.695312 240.597656 162.085938 239.773438 161.515625 238.925781 C 160.949219 238.074219 160.421875 237.195312 159.941406 236.292969 C 159.457031 235.390625 159.019531 234.46875 158.628906 233.519531 C 158.238281 232.574219 157.894531 231.613281 157.59375 230.632812 C 157.296875 229.65625 157.050781 228.664062 156.851562 227.660156 C 156.652344 226.65625 156.5 225.644531 156.402344 224.625 C 156.300781 223.605469 156.25 222.585938 156.25 221.5625 C 156.25 220.539062 156.300781 219.519531 156.402344 218.5 C 156.503906 217.480469 156.65625 216.472656 156.855469 215.46875 C 157.058594 214.464844 157.304688 213.472656 157.605469 212.496094 C 157.902344 211.515625 158.246094 210.554688 158.636719 209.609375 C 159.03125 208.664062 159.46875 207.742188 159.949219 206.839844 C 160.433594 205.9375 160.957031 205.058594 161.527344 204.210938 C 162.097656 203.359375 162.707031 202.539062 163.355469 201.746094 C 164.003906 200.957031 164.691406 200.199219 165.414062 199.476562 C 166.136719 198.753906 166.894531 198.066406 167.683594 197.417969 C 168.476562 196.769531 169.296875 196.160156 170.148438 195.589844 C 170.996094 195.019531 171.875 194.496094 172.777344 194.011719 C 173.679688 193.53125 174.601562 193.09375 175.546875 192.699219 C 176.492188 192.308594 177.453125 191.964844 178.433594 191.667969 C 179.410156 191.367188 180.402344 191.121094 181.40625 190.917969 C 182.410156 190.71875 183.421875 190.566406 184.4375 190.464844 C 185.457031 190.363281 186.476562 190.3125 187.5 190.3125 Z M 187.5 190.3125 " fill-opacity="1" fill-rule="nonzero"/><path fill="#004aad" d="M 173.878906 238.085938 C 174.523438 238.484375 175.210938 238.796875 175.9375 239.019531 C 176.667969 239.246094 177.410156 239.375 178.171875 239.410156 C 178.929688 239.445312 179.683594 239.382812 180.425781 239.222656 C 181.171875 239.066406 181.882812 238.816406 182.566406 238.476562 L 200.421875 229.546875 C 201.164062 229.175781 201.839844 228.710938 202.453125 228.152344 C 203.0625 227.59375 203.585938 226.960938 204.023438 226.253906 C 204.460938 225.550781 204.789062 224.796875 205.015625 224 C 205.242188 223.203125 205.355469 222.390625 205.355469 221.5625 C 205.355469 220.730469 205.242188 219.917969 205.015625 219.121094 C 204.789062 218.324219 204.460938 217.574219 204.023438 216.867188 C 203.585938 216.164062 203.0625 215.53125 202.453125 214.972656 C 201.839844 214.410156 201.164062 213.945312 200.421875 213.574219 L 182.566406 204.648438 C 182.226562 204.476562 181.878906 204.332031 181.519531 204.207031 C 181.164062 204.082031 180.796875 203.976562 180.425781 203.898438 C 180.058594 203.820312 179.683594 203.765625 179.304688 203.734375 C 178.925781 203.703125 178.550781 203.695312 178.171875 203.714844 C 177.792969 203.730469 177.417969 203.773438 177.042969 203.835938 C 176.667969 203.902344 176.300781 203.988281 175.941406 204.101562 C 175.578125 204.210938 175.222656 204.347656 174.878906 204.503906 C 174.535156 204.660156 174.199219 204.839844 173.878906 205.039062 C 173.554688 205.238281 173.246094 205.457031 172.953125 205.695312 C 172.660156 205.933594 172.378906 206.1875 172.117188 206.460938 C 171.855469 206.734375 171.613281 207.027344 171.386719 207.332031 C 171.164062 207.636719 170.957031 207.953125 170.773438 208.285156 C 170.589844 208.613281 170.425781 208.957031 170.285156 209.308594 C 170.144531 209.660156 170.027344 210.019531 169.929688 210.386719 C 169.835938 210.753906 169.761719 211.125 169.714844 211.5 C 169.667969 211.875 169.644531 212.253906 169.644531 212.632812 L 169.644531 230.488281 C 169.644531 231.25 169.738281 232 169.929688 232.734375 C 170.121094 233.472656 170.402344 234.171875 170.773438 234.835938 C 171.144531 235.5 171.589844 236.109375 172.117188 236.660156 C 172.644531 237.210938 173.230469 237.683594 173.878906 238.085938 Z M 178.570312 212.632812 L 196.429688 221.558594 L 178.570312 230.488281 Z M 178.570312 212.632812 " fill-opacity="1" fill-rule="nonzero"/><path fill="#2d4356" d="M 353.359375 39.597656 C 353.800781 39.597656 354.234375 39.554688 354.664062 39.46875 C 355.097656 39.382812 355.515625 39.257812 355.921875 39.089844 C 356.328125 38.921875 356.714844 38.714844 357.078125 38.46875 C 357.445312 38.226562 357.785156 37.949219 358.09375 37.636719 C 358.40625 37.324219 358.683594 36.988281 358.925781 36.621094 C 359.171875 36.257812 359.378906 35.871094 359.546875 35.464844 C 359.714844 35.058594 359.839844 34.640625 359.925781 34.207031 C 360.011719 33.777344 360.054688 33.339844 360.054688 32.902344 C 360.054688 32.460938 360.011719 32.027344 359.925781 31.59375 C 359.839844 31.164062 359.714844 30.746094 359.546875 30.339844 C 359.378906 29.933594 359.171875 29.546875 358.925781 29.179688 C 358.683594 28.816406 358.40625 28.476562 358.09375 28.167969 C 357.785156 27.855469 357.445312 27.578125 357.078125 27.332031 C 356.714844 27.089844 356.328125 26.882812 355.921875 26.714844 C 355.515625 26.546875 355.097656 26.417969 354.664062 26.335938 C 354.234375 26.25 353.800781 26.207031 353.359375 26.207031 C 352.917969 26.207031 352.484375 26.25 352.054688 26.335938 C 351.621094 26.417969 351.203125 26.546875 350.796875 26.714844 C 350.390625 26.882812 350.003906 27.089844 349.640625 27.332031 C 349.273438 27.578125 348.933594 27.855469 348.625 28.167969 C 348.3125 28.476562 348.035156 28.816406 347.792969 29.179688 C 347.546875 29.546875 347.339844 29.933594 347.171875 30.339844 C 347.003906 30.746094 346.878906 31.164062 346.792969 31.59375 C 346.707031 32.027344 346.664062 32.460938 346.664062 32.902344 C 346.664062 33.339844 346.707031 33.777344 346.792969 34.207031 C 346.878906 34.640625 347.007812 35.058594 347.175781 35.464844 C 347.34375 35.871094 347.550781 36.253906 347.792969 36.621094 C 348.039062 36.984375 348.316406 37.324219 348.625 37.636719 C 348.9375 37.945312 349.273438 38.222656 349.640625 38.46875 C 350.007812 38.710938 350.390625 38.917969 350.796875 39.085938 C 351.203125 39.253906 351.621094 39.382812 352.054688 39.46875 C 352.484375 39.554688 352.917969 39.597656 353.359375 39.597656 Z M 353.359375 29.554688 C 353.804688 29.554688 354.230469 29.636719 354.640625 29.808594 C 355.050781 29.976562 355.414062 30.21875 355.726562 30.535156 C 356.039062 30.847656 356.28125 31.210938 356.453125 31.621094 C 356.621094 32.03125 356.707031 32.457031 356.707031 32.902344 C 356.707031 33.347656 356.621094 33.773438 356.453125 34.183594 C 356.28125 34.59375 356.039062 34.957031 355.726562 35.269531 C 355.414062 35.582031 355.050781 35.824219 354.640625 35.996094 C 354.230469 36.164062 353.804688 36.25 353.359375 36.25 C 352.914062 36.25 352.488281 36.164062 352.078125 35.996094 C 351.667969 35.824219 351.304688 35.582031 350.992188 35.269531 C 350.679688 34.957031 350.4375 34.59375 350.265625 34.183594 C 350.097656 33.773438 350.011719 33.347656 350.011719 32.902344 C 350.011719 32.457031 350.097656 32.03125 350.265625 31.621094 C 350.4375 31.210938 350.679688 30.847656 350.992188 30.535156 C 351.304688 30.222656 351.667969 29.980469 352.078125 29.808594 C 352.488281 29.640625 352.914062 29.554688 353.359375 29.554688 Z M 353.359375 145.667969 C 353.066406 145.667969 352.777344 145.699219 352.488281 145.753906 C 352.199219 145.8125 351.921875 145.898438 351.652344 146.007812 C 351.378906 146.121094 351.121094 146.257812 350.878906 146.421875 C 350.636719 146.585938 350.410156 146.769531 350.203125 146.976562 C 349.996094 147.183594 349.808594 147.410156 349.648438 147.652344 C 349.484375 147.898438 349.347656 148.15625 349.234375 148.425781 C 349.121094 148.695312 349.039062 148.976562 348.980469 149.261719 C 348.921875 149.550781 348.894531 149.839844 348.894531 150.132812 C 348.894531 150.425781 348.921875 150.71875 348.980469 151.003906 C 349.039062 151.292969 349.121094 151.570312 349.234375 151.84375 C 349.347656 152.113281 349.484375 152.371094 349.648438 152.613281 C 349.808594 152.859375 349.996094 153.082031 350.203125 153.289062 C 350.410156 153.496094 350.636719 153.683594 350.878906 153.847656 C 351.121094 154.007812 351.378906 154.144531 351.652344 154.257812 C 351.921875 154.371094 352.199219 154.457031 352.488281 154.511719 C 352.777344 154.570312 353.066406 154.597656 353.359375 154.597656 C 353.652344 154.597656 353.941406 154.570312 354.230469 154.511719 C 354.519531 154.457031 354.796875 154.371094 355.066406 154.257812 C 355.339844 154.144531 355.597656 154.007812 355.839844 153.847656 C 356.082031 153.683594 356.308594 153.496094 356.515625 153.289062 C 356.722656 153.082031 356.910156 152.859375 357.070312 152.613281 C 357.234375 152.371094 357.371094 152.113281 357.484375 151.84375 C 357.597656 151.570312 357.679688 151.292969 357.738281 151.003906 C 357.796875 150.71875 357.824219 150.425781 357.824219 150.132812 C 357.824219 149.839844 357.792969 149.550781 357.738281 149.261719 C 357.679688 148.976562 357.59375 148.695312 357.484375 148.425781 C 357.371094 148.15625 357.234375 147.898438 357.070312 147.65625 C 356.90625 147.410156 356.722656 147.1875 356.515625 146.976562 C 356.308594 146.769531 356.082031 146.585938 355.839844 146.421875 C 355.59375 146.261719 355.335938 146.121094 355.066406 146.011719 C 354.796875 145.898438 354.515625 145.8125 354.230469 145.757812 C 353.941406 145.699219 353.652344 145.671875 353.359375 145.667969 Z M 353.359375 152.367188 C 353.0625 152.367188 352.777344 152.308594 352.503906 152.195312 C 352.230469 152.082031 351.992188 151.921875 351.78125 151.710938 C 351.570312 151.503906 351.410156 151.261719 351.296875 150.988281 C 351.183594 150.714844 351.128906 150.429688 351.128906 150.132812 C 351.128906 149.839844 351.183594 149.554688 351.296875 149.28125 C 351.410156 149.007812 351.570312 148.765625 351.78125 148.554688 C 351.992188 148.347656 352.230469 148.183594 352.503906 148.070312 C 352.777344 147.957031 353.0625 147.902344 353.359375 147.902344 C 353.65625 147.902344 353.941406 147.957031 354.214844 148.070312 C 354.488281 148.183594 354.726562 148.347656 354.9375 148.554688 C 355.148438 148.765625 355.308594 149.007812 355.421875 149.28125 C 355.535156 149.554688 355.589844 149.839844 355.589844 150.132812 C 355.589844 150.429688 355.535156 150.714844 355.421875 150.988281 C 355.308594 151.261719 355.144531 151.503906 354.9375 151.710938 C 354.726562 151.921875 354.488281 152.082031 354.214844 152.195312 C 353.941406 152.308594 353.65625 152.367188 353.359375 152.367188 Z M 219.429688 80.9375 C 219.136719 80.9375 218.847656 80.964844 218.558594 81.023438 C 218.273438 81.082031 217.992188 81.164062 217.722656 81.277344 C 217.453125 81.390625 217.195312 81.527344 216.949219 81.691406 C 216.707031 81.851562 216.480469 82.039062 216.273438 82.246094 C 216.066406 82.453125 215.882812 82.679688 215.71875 82.921875 C 215.554688 83.164062 215.417969 83.421875 215.304688 83.695312 C 215.195312 83.964844 215.109375 84.242188 215.050781 84.53125 C 214.996094 84.816406 214.964844 85.109375 214.964844 85.402344 C 214.964844 85.695312 214.996094 85.984375 215.050781 86.273438 C 215.109375 86.558594 215.195312 86.839844 215.304688 87.109375 C 215.417969 87.382812 215.554688 87.636719 215.71875 87.882812 C 215.882812 88.125 216.066406 88.351562 216.273438 88.558594 C 216.480469 88.765625 216.707031 88.949219 216.949219 89.113281 C 217.195312 89.277344 217.453125 89.414062 217.722656 89.527344 C 217.992188 89.636719 218.273438 89.722656 218.558594 89.78125 C 218.847656 89.835938 219.136719 89.867188 219.429688 89.867188 C 219.722656 89.867188 220.015625 89.835938 220.300781 89.78125 C 220.589844 89.722656 220.867188 89.636719 221.140625 89.527344 C 221.410156 89.414062 221.667969 89.277344 221.910156 89.113281 C 222.15625 88.949219 222.378906 88.765625 222.585938 88.558594 C 222.792969 88.351562 222.980469 88.125 223.144531 87.882812 C 223.304688 87.636719 223.441406 87.382812 223.554688 87.109375 C 223.667969 86.839844 223.753906 86.558594 223.808594 86.273438 C 223.867188 85.984375 223.894531 85.695312 223.894531 85.402344 C 223.894531 85.109375 223.867188 84.820312 223.808594 84.53125 C 223.75 84.242188 223.667969 83.964844 223.554688 83.695312 C 223.441406 83.421875 223.304688 83.167969 223.140625 82.921875 C 222.976562 82.679688 222.792969 82.453125 222.585938 82.246094 C 222.378906 82.039062 222.152344 81.855469 221.910156 81.691406 C 221.667969 81.527344 221.410156 81.390625 221.136719 81.277344 C 220.867188 81.167969 220.589844 81.082031 220.300781 81.023438 C 220.015625 80.964844 219.722656 80.9375 219.429688 80.9375 Z M 219.429688 87.632812 C 219.136719 87.632812 218.851562 87.578125 218.578125 87.464844 C 218.304688 87.351562 218.0625 87.1875 217.851562 86.980469 C 217.644531 86.769531 217.480469 86.53125 217.367188 86.257812 C 217.253906 85.984375 217.199219 85.699219 217.199219 85.402344 C 217.199219 85.105469 217.253906 84.820312 217.367188 84.546875 C 217.480469 84.273438 217.644531 84.03125 217.851562 83.824219 C 218.0625 83.613281 218.304688 83.453125 218.578125 83.339844 C 218.851562 83.226562 219.136719 83.167969 219.429688 83.167969 C 219.726562 83.167969 220.011719 83.226562 220.285156 83.339844 C 220.558594 83.453125 220.800781 83.613281 221.007812 83.824219 C 221.21875 84.03125 221.378906 84.273438 221.492188 84.546875 C 221.605469 84.820312 221.664062 85.105469 221.664062 85.402344 C 221.664062 85.699219 221.605469 85.980469 221.492188 86.253906 C 221.378906 86.527344 221.21875 86.769531 221.007812 86.980469 C 220.800781 87.1875 220.558594 87.351562 220.285156 87.464844 C 220.011719 87.578125 219.726562 87.632812 219.429688 87.632812 Z M 151.785156 26.207031 C 151.492188 26.207031 151.203125 26.234375 150.914062 26.292969 C 150.628906 26.347656 150.347656 26.433594 150.078125 26.546875 C 149.804688 26.65625 149.550781 26.792969 149.304688 26.957031 C 149.0625 27.121094 148.835938 27.304688 148.628906 27.511719 C 148.421875 27.71875 148.238281 27.945312 148.074219 28.1875 C 147.910156 28.433594 147.773438 28.691406 147.660156 28.960938 C 147.550781 29.230469 147.464844 29.511719 147.40625 29.796875 C 147.351562 30.085938 147.320312 30.375 147.320312 30.667969 C 147.320312 30.960938 147.351562 31.253906 147.40625 31.539062 C 147.464844 31.828125 147.550781 32.105469 147.660156 32.378906 C 147.773438 32.648438 147.910156 32.90625 148.074219 33.148438 C 148.238281 33.394531 148.421875 33.617188 148.628906 33.828125 C 148.835938 34.035156 149.0625 34.21875 149.304688 34.382812 C 149.550781 34.542969 149.804688 34.683594 150.078125 34.792969 C 150.347656 34.90625 150.628906 34.992188 150.914062 35.046875 C 151.203125 35.105469 151.492188 35.132812 151.785156 35.132812 C 152.078125 35.132812 152.371094 35.105469 152.65625 35.046875 C 152.945312 34.992188 153.222656 34.90625 153.492188 34.792969 C 153.765625 34.683594 154.023438 34.542969 154.265625 34.382812 C 154.507812 34.21875 154.734375 34.035156 154.941406 33.828125 C 155.148438 33.617188 155.335938 33.394531 155.496094 33.148438 C 155.660156 32.90625 155.796875 32.648438 155.910156 32.378906 C 156.023438 32.105469 156.105469 31.828125 156.164062 31.539062 C 156.222656 31.253906 156.25 30.960938 156.25 30.667969 C 156.25 30.375 156.222656 30.085938 156.164062 29.800781 C 156.105469 29.511719 156.019531 29.234375 155.910156 28.960938 C 155.796875 28.691406 155.660156 28.433594 155.496094 28.191406 C 155.332031 27.945312 155.148438 27.722656 154.941406 27.515625 C 154.734375 27.308594 154.507812 27.121094 154.265625 26.960938 C 154.019531 26.796875 153.765625 26.660156 153.492188 26.546875 C 153.222656 26.433594 152.945312 26.347656 152.65625 26.292969 C 152.367188 26.234375 152.078125 26.207031 151.785156 26.207031 Z M 151.785156 32.902344 C 151.488281 32.902344 151.203125 32.84375 150.929688 32.730469 C 150.65625 32.617188 150.417969 32.457031 150.207031 32.246094 C 149.996094 32.039062 149.835938 31.796875 149.722656 31.523438 C 149.609375 31.25 149.554688 30.964844 149.554688 30.667969 C 149.554688 30.375 149.609375 30.089844 149.722656 29.816406 C 149.835938 29.542969 149.996094 29.300781 150.207031 29.089844 C 150.417969 28.882812 150.65625 28.71875 150.929688 28.605469 C 151.203125 28.492188 151.488281 28.4375 151.785156 28.4375 C 152.082031 28.4375 152.367188 28.492188 152.640625 28.605469 C 152.914062 28.71875 153.15625 28.882812 153.363281 29.089844 C 153.574219 29.300781 153.734375 29.542969 153.847656 29.816406 C 153.960938 30.089844 154.019531 30.375 154.019531 30.667969 C 154.015625 30.964844 153.960938 31.25 153.847656 31.523438 C 153.734375 31.796875 153.574219 32.039062 153.363281 32.246094 C 153.152344 32.457031 152.914062 32.617188 152.640625 32.730469 C 152.367188 32.84375 152.082031 32.902344 151.785156 32.902344 Z M 13.394531 121.117188 C 13.394531 120.824219 13.363281 120.53125 13.308594 120.246094 C 13.25 119.957031 13.164062 119.679688 13.054688 119.40625 C 12.941406 119.136719 12.804688 118.878906 12.640625 118.636719 C 12.476562 118.390625 12.292969 118.167969 12.085938 117.960938 C 11.878906 117.753906 11.652344 117.566406 11.410156 117.402344 C 11.164062 117.242188 10.90625 117.105469 10.636719 116.992188 C 10.367188 116.878906 10.085938 116.792969 9.800781 116.738281 C 9.511719 116.679688 9.222656 116.652344 8.929688 116.652344 C 8.636719 116.652344 8.34375 116.679688 8.058594 116.738281 C 7.769531 116.792969 7.492188 116.878906 7.21875 116.992188 C 6.949219 117.105469 6.691406 117.242188 6.449219 117.402344 C 6.203125 117.566406 5.980469 117.753906 5.773438 117.960938 C 5.566406 118.167969 5.378906 118.390625 5.214844 118.636719 C 5.054688 118.878906 4.917969 119.136719 4.804688 119.40625 C 4.691406 119.679688 4.605469 119.957031 4.550781 120.246094 C 4.492188 120.53125 4.464844 120.824219 4.464844 121.117188 C 4.464844 121.410156 4.492188 121.699219 4.550781 121.988281 C 4.605469 122.273438 4.691406 122.554688 4.804688 122.824219 C 4.917969 123.09375 5.054688 123.351562 5.214844 123.597656 C 5.378906 123.839844 5.566406 124.066406 5.773438 124.273438 C 5.980469 124.480469 6.203125 124.664062 6.449219 124.828125 C 6.691406 124.992188 6.949219 125.128906 7.21875 125.242188 C 7.492188 125.351562 7.769531 125.4375 8.058594 125.496094 C 8.34375 125.550781 8.636719 125.582031 8.929688 125.582031 C 9.222656 125.578125 9.511719 125.550781 9.800781 125.492188 C 10.085938 125.4375 10.367188 125.351562 10.636719 125.238281 C 10.90625 125.128906 11.164062 124.988281 11.40625 124.828125 C 11.652344 124.664062 11.875 124.480469 12.085938 124.273438 C 12.292969 124.0625 12.476562 123.839844 12.640625 123.59375 C 12.800781 123.351562 12.941406 123.09375 13.050781 122.824219 C 13.164062 122.554688 13.25 122.273438 13.304688 121.988281 C 13.363281 121.699219 13.390625 121.410156 13.394531 121.117188 Z M 6.695312 121.117188 C 6.695312 120.820312 6.753906 120.535156 6.867188 120.261719 C 6.980469 119.988281 7.140625 119.746094 7.351562 119.539062 C 7.558594 119.328125 7.800781 119.167969 8.074219 119.054688 C 8.347656 118.941406 8.632812 118.882812 8.929688 118.882812 C 9.222656 118.882812 9.507812 118.941406 9.78125 119.054688 C 10.054688 119.167969 10.296875 119.328125 10.507812 119.539062 C 10.714844 119.746094 10.878906 119.988281 10.992188 120.261719 C 11.105469 120.535156 11.160156 120.820312 11.160156 121.117188 C 11.160156 121.410156 11.105469 121.695312 10.992188 121.96875 C 10.878906 122.242188 10.714844 122.484375 10.507812 122.695312 C 10.296875 122.902344 10.054688 123.066406 9.78125 123.179688 C 9.507812 123.292969 9.222656 123.347656 8.929688 123.347656 C 8.632812 123.347656 8.347656 123.292969 8.074219 123.175781 C 7.800781 123.0625 7.558594 122.902344 7.351562 122.695312 C 7.140625 122.484375 6.980469 122.242188 6.867188 121.96875 C 6.753906 121.695312 6.695312 121.410156 6.695312 121.117188 Z M 6.695312 121.117188 " fill-opacity="1" fill-rule="nonzero"/><path fill="#004aad" d="M 108.070312 85.753906 L 111.386719 81.386719 L 109.292969 80.199219 L 107.164062 85.089844 L 107.089844 85.089844 L 104.929688 80.234375 L 102.792969 81.457031 L 106.082031 85.71875 L 106.082031 85.789062 L 100.945312 85.125 L 100.945312 87.496094 L 106.113281 86.835938 L 106.113281 86.90625 L 102.792969 91.164062 L 104.785156 92.425781 L 107.058594 87.496094 L 107.125 87.496094 L 109.222656 92.386719 L 111.421875 91.132812 L 108.070312 86.941406 L 108.070312 86.871094 L 113.339844 87.496094 L 113.339844 85.125 L 108.070312 85.820312 Z M 29.105469 41.355469 L 27.195312 43.808594 L 28.339844 44.535156 L 29.648438 41.695312 L 29.6875 41.695312 L 30.894531 44.511719 L 32.164062 43.789062 L 30.230469 41.375 L 30.230469 41.335938 L 33.269531 41.695312 L 33.269531 40.332031 L 30.230469 40.730469 L 30.230469 40.691406 L 32.144531 38.179688 L 30.933594 37.492188 L 29.710938 40.308594 L 29.667969 40.308594 L 28.421875 37.511719 L 27.195312 38.214844 L 29.085938 40.671875 L 29.085938 40.710938 L 26.128906 40.332031 L 26.128906 41.695312 L 29.105469 41.316406 Z M 346.664062 98.152344 L 346.664062 95.824219 L 341.492188 96.507812 L 341.492188 96.441406 L 344.746094 92.160156 L 342.691406 90.996094 L 340.601562 95.789062 L 340.53125 95.789062 L 338.410156 91.027344 L 336.316406 92.226562 L 339.539062 96.410156 L 339.539062 96.476562 L 334.5 95.824219 L 334.5 98.152344 L 339.570312 97.503906 L 339.570312 97.570312 L 336.316406 101.75 L 338.269531 102.984375 L 340.496094 98.152344 L 340.566406 98.152344 L 342.621094 102.949219 L 344.777344 101.714844 L 341.492188 97.605469 L 341.492188 97.539062 Z M 260.597656 35.367188 L 263.40625 31.675781 L 261.632812 30.671875 L 259.832031 34.808594 L 259.769531 34.808594 L 257.941406 30.699219 L 256.132812 31.734375 L 258.914062 35.339844 L 258.914062 35.398438 L 254.570312 34.835938 L 254.570312 36.847656 L 258.941406 36.285156 L 258.941406 36.34375 L 256.132812 39.949219 L 257.820312 41.011719 L 259.742188 36.847656 L 259.800781 36.847656 L 261.574219 40.984375 L 263.433594 39.917969 L 260.597656 36.371094 L 260.597656 36.316406 L 265.058594 36.847656 L 265.058594 34.835938 L 260.597656 35.429688 Z M 263.738281 326.472656 L 245.191406 326.472656 C 244.628906 326.515625 244.09375 326.660156 243.585938 326.90625 C 243.078125 327.152344 242.632812 327.480469 242.25 327.894531 C 241.867188 328.308594 241.574219 328.78125 241.367188 329.304688 C 241.164062 329.828125 241.058594 330.375 241.058594 330.9375 C 241.058594 331.5 241.164062 332.046875 241.367188 332.570312 C 241.574219 333.09375 241.867188 333.566406 242.25 333.980469 C 242.632812 334.394531 243.078125 334.722656 243.585938 334.96875 C 244.09375 335.214844 244.628906 335.359375 245.191406 335.402344 L 263.738281 335.402344 C 264.296875 335.359375 264.832031 335.214844 265.339844 334.96875 C 265.847656 334.722656 266.292969 334.394531 266.675781 333.980469 C 267.058594 333.566406 267.355469 333.09375 267.558594 332.570312 C 267.765625 332.046875 267.867188 331.5 267.867188 330.9375 C 267.867188 330.375 267.765625 329.828125 267.558594 329.304688 C 267.355469 328.78125 267.058594 328.308594 266.675781 327.894531 C 266.292969 327.480469 265.847656 327.152344 265.339844 326.90625 C 264.832031 326.660156 264.296875 326.515625 263.738281 326.472656 Z M 129.808594 326.472656 L 111.261719 326.472656 C 110.703125 326.515625 110.167969 326.660156 109.660156 326.90625 C 109.152344 327.152344 108.707031 327.480469 108.324219 327.894531 C 107.941406 328.308594 107.644531 328.78125 107.441406 329.304688 C 107.234375 329.828125 107.132812 330.375 107.132812 330.9375 C 107.132812 331.5 107.234375 332.046875 107.441406 332.570312 C 107.644531 333.09375 107.941406 333.566406 108.324219 333.980469 C 108.707031 334.394531 109.152344 334.722656 109.660156 334.96875 C 110.167969 335.214844 110.703125 335.359375 111.261719 335.402344 L 129.808594 335.402344 C 130.371094 335.359375 130.90625 335.214844 131.414062 334.96875 C 131.921875 334.722656 132.367188 334.394531 132.75 333.980469 C 133.132812 333.566406 133.425781 333.09375 133.632812 332.570312 C 133.835938 332.046875 133.941406 331.5 133.941406 330.9375 C 133.941406 330.375 133.835938 329.828125 133.632812 329.304688 C 133.425781 328.78125 133.132812 328.308594 132.75 327.894531 C 132.367188 327.480469 131.921875 327.152344 131.414062 326.90625 C 130.90625 326.660156 130.371094 326.515625 129.808594 326.472656 Z M 232.144531 326.472656 L 142.855469 326.472656 C 142.5625 326.472656 142.273438 326.5 141.984375 326.558594 C 141.699219 326.617188 141.417969 326.699219 141.148438 326.8125 C 140.878906 326.925781 140.621094 327.0625 140.375 327.226562 C 140.132812 327.386719 139.90625 327.574219 139.699219 327.78125 C 139.492188 327.988281 139.308594 328.214844 139.144531 328.457031 C 138.980469 328.699219 138.84375 328.957031 138.734375 329.230469 C 138.621094 329.5 138.535156 329.777344 138.480469 330.066406 C 138.421875 330.355469 138.394531 330.644531 138.394531 330.9375 C 138.394531 331.230469 138.421875 331.519531 138.480469 331.808594 C 138.535156 332.097656 138.621094 332.375 138.734375 332.644531 C 138.84375 332.917969 138.980469 333.175781 139.144531 333.417969 C 139.308594 333.660156 139.492188 333.886719 139.699219 334.09375 C 139.90625 334.300781 140.132812 334.488281 140.375 334.648438 C 140.621094 334.8125 140.878906 334.949219 141.148438 335.0625 C 141.417969 335.175781 141.699219 335.257812 141.984375 335.316406 C 142.273438 335.375 142.5625 335.402344 142.855469 335.402344 L 178.4375 335.402344 L 178.4375 339.867188 L 160.714844 339.867188 C 160.421875 339.867188 160.128906 339.894531 159.84375 339.953125 C 159.554688 340.007812 159.277344 340.09375 159.003906 340.207031 C 158.734375 340.316406 158.476562 340.457031 158.234375 340.617188 C 157.992188 340.78125 157.765625 340.964844 157.558594 341.171875 C 157.351562 341.378906 157.164062 341.605469 157.003906 341.851562 C 156.839844 342.09375 156.703125 342.351562 156.589844 342.621094 C 156.476562 342.894531 156.394531 343.171875 156.335938 343.460938 C 156.277344 343.746094 156.25 344.039062 156.25 344.332031 C 156.25 344.625 156.277344 344.914062 156.335938 345.203125 C 156.394531 345.488281 156.476562 345.769531 156.589844 346.039062 C 156.703125 346.308594 156.839844 346.566406 157.003906 346.808594 C 157.164062 347.054688 157.351562 347.28125 157.558594 347.488281 C 157.765625 347.695312 157.992188 347.878906 158.234375 348.042969 C 158.476562 348.203125 158.734375 348.34375 159.003906 348.453125 C 159.277344 348.566406 159.554688 348.652344 159.84375 348.707031 C 160.128906 348.765625 160.421875 348.792969 160.714844 348.792969 L 216.519531 348.792969 C 216.8125 348.792969 217.101562 348.765625 217.390625 348.707031 C 217.675781 348.652344 217.957031 348.566406 218.226562 348.453125 C 218.496094 348.34375 218.753906 348.203125 219 348.042969 C 219.242188 347.878906 219.46875 347.695312 219.675781 347.488281 C 219.882812 347.28125 220.066406 347.054688 220.230469 346.808594 C 220.394531 346.566406 220.53125 346.308594 220.640625 346.039062 C 220.753906 345.769531 220.839844 345.488281 220.894531 345.203125 C 220.953125 344.914062 220.980469 344.625 220.980469 344.332031 C 220.980469 344.039062 220.953125 343.746094 220.894531 343.460938 C 220.839844 343.171875 220.753906 342.894531 220.640625 342.621094 C 220.53125 342.351562 220.394531 342.09375 220.230469 341.851562 C 220.066406 341.605469 219.882812 341.378906 219.675781 341.171875 C 219.46875 340.964844 219.242188 340.78125 219 340.617188 C 218.753906 340.457031 218.496094 340.316406 218.226562 340.207031 C 217.957031 340.09375 217.675781 340.007812 217.390625 339.953125 C 217.101562 339.894531 216.8125 339.867188 216.519531 339.867188 L 196.5625 339.867188 L 196.5625 335.402344 L 232.144531 335.402344 C 232.4375 335.402344 232.726562 335.375 233.015625 335.316406 C 233.300781 335.257812 233.582031 335.175781 233.851562 335.0625 C 234.121094 334.949219 234.378906 334.8125 234.625 334.648438 C 234.867188 334.488281 235.09375 334.300781 235.300781 334.09375 C 235.507812 333.886719 235.691406 333.660156 235.855469 333.417969 C 236.015625 333.175781 236.15625 332.917969 236.265625 332.644531 C 236.378906 332.375 236.464844 332.097656 236.519531 331.808594 C 236.578125 331.519531 236.605469 331.230469 236.605469 330.9375 C 236.605469 330.644531 236.578125 330.355469 236.519531 330.066406 C 236.464844 329.777344 236.378906 329.5 236.265625 329.230469 C 236.15625 328.957031 236.015625 328.699219 235.855469 328.457031 C 235.691406 328.214844 235.507812 327.988281 235.300781 327.78125 C 235.09375 327.574219 234.867188 327.386719 234.621094 327.226562 C 234.378906 327.0625 234.121094 326.925781 233.851562 326.8125 C 233.582031 326.699219 233.300781 326.617188 233.015625 326.558594 C 232.726562 326.5 232.4375 326.472656 232.144531 326.472656 Z M 232.144531 326.472656 " fill-opacity="1" fill-rule="nonzero"/><path fill="#004aad" d="M 263.738281 326.472656 L 245.191406 326.472656 C 244.628906 326.515625 244.09375 326.660156 243.585938 326.90625 C 243.078125 327.152344 242.632812 327.480469 242.25 327.894531 C 241.867188 328.308594 241.574219 328.78125 241.367188 329.304688 C 241.164062 329.828125 241.058594 330.375 241.058594 330.9375 C 241.058594 331.5 241.164062 332.046875 241.367188 332.570312 C 241.574219 333.09375 241.867188 333.566406 242.25 333.980469 C 242.632812 334.394531 243.078125 334.722656 243.585938 334.96875 C 244.09375 335.214844 244.628906 335.359375 245.191406 335.402344 L 263.738281 335.402344 C 264.296875 335.359375 264.832031 335.214844 265.339844 334.96875 C 265.847656 334.722656 266.292969 334.394531 266.675781 333.980469 C 267.058594 333.566406 267.355469 333.09375 267.558594 332.570312 C 267.765625 332.046875 267.867188 331.5 267.867188 330.9375 C 267.867188 330.375 267.765625 329.828125 267.558594 329.304688 C 267.355469 328.78125 267.058594 328.308594 266.675781 327.894531 C 266.292969 327.480469 265.847656 327.152344 265.339844 326.90625 C 264.832031 326.660156 264.296875 326.515625 263.738281 326.472656 Z M 129.808594 326.472656 L 111.261719 326.472656 C 110.703125 326.515625 110.167969 326.660156 109.660156 326.90625 C 109.152344 327.152344 108.707031 327.480469 108.324219 327.894531 C 107.941406 328.308594 107.644531 328.78125 107.441406 329.304688 C 107.234375 329.828125 107.132812 330.375 107.132812 330.9375 C 107.132812 331.5 107.234375 332.046875 107.441406 332.570312 C 107.644531 333.09375 107.941406 333.566406 108.324219 333.980469 C 108.707031 334.394531 109.152344 334.722656 109.660156 334.96875 C 110.167969 335.214844 110.703125 335.359375 111.261719 335.402344 L 129.808594 335.402344 C 130.371094 335.359375 130.90625 335.214844 131.414062 334.96875 C 131.921875 334.722656 132.367188 334.394531 132.75 333.980469 C 133.132812 333.566406 133.425781 333.09375 133.632812 332.570312 C 133.835938 332.046875 133.941406 331.5 133.941406 330.9375 C 133.941406 330.375 133.835938 329.828125 133.632812 329.304688 C 133.425781 328.78125 133.132812 328.308594 132.75 327.894531 C 132.367188 327.480469 131.921875 327.152344 131.414062 326.90625 C 130.90625 326.660156 130.371094 326.515625 129.808594 326.472656 Z M 232.144531 326.472656 L 142.855469 326.472656 C 142.5625 326.472656 142.273438 326.5 141.984375 326.558594 C 141.699219 326.617188 141.417969 326.699219 141.148438 326.8125 C 140.878906 326.925781 140.621094 327.0625 140.375 327.226562 C 140.132812 327.386719 139.90625 327.574219 139.699219 327.78125 C 139.492188 327.988281 139.308594 328.214844 139.144531 328.457031 C 138.980469 328.699219 138.84375 328.957031 138.734375 329.230469 C 138.621094 329.5 138.535156 329.777344 138.480469 330.066406 C 138.421875 330.355469 138.394531 330.644531 138.394531 330.9375 C 138.394531 331.230469 138.421875 331.519531 138.480469 331.808594 C 138.535156 332.097656 138.621094 332.375 138.734375 332.644531 C 138.84375 332.917969 138.980469 333.175781 139.144531 333.417969 C 139.308594 333.660156 139.492188 333.886719 139.699219 334.09375 C 139.90625 334.300781 140.132812 334.488281 140.375 334.648438 C 140.621094 334.8125 140.878906 334.949219 141.148438 335.0625 C 141.417969 335.175781 141.699219 335.257812 141.984375 335.316406 C 142.273438 335.375 142.5625 335.402344 142.855469 335.402344 L 178.4375 335.402344 L 178.4375 339.867188 L 160.714844 339.867188 C 160.421875 339.867188 160.128906 339.894531 159.84375 339.953125 C 159.554688 340.007812 159.277344 340.09375 159.003906 340.207031 C 158.734375 340.316406 158.476562 340.457031 158.234375 340.617188 C 157.992188 340.78125 157.765625 340.964844 157.558594 341.171875 C 157.351562 341.378906 157.164062 341.605469 157.003906 341.851562 C 156.839844 342.09375 156.703125 342.351562 156.589844 342.621094 C 156.476562 342.894531 156.394531 343.171875 156.335938 343.460938 C 156.277344 343.746094 156.25 344.039062 156.25 344.332031 C 156.25 344.625 156.277344 344.914062 156.335938 345.203125 C 156.394531 345.488281 156.476562 345.769531 156.589844 346.039062 C 156.703125 346.308594 156.839844 346.566406 157.003906 346.808594 C 157.164062 347.054688 157.351562 347.28125 157.558594 347.488281 C 157.765625 347.695312 157.992188 347.878906 158.234375 348.042969 C 158.476562 348.203125 158.734375 348.34375 159.003906 348.453125 C 159.277344 348.566406 159.554688 348.652344 159.84375 348.707031 C 160.128906 348.765625 160.421875 348.792969 160.714844 348.792969 L 216.519531 348.792969 C 216.8125 348.792969 217.101562 348.765625 217.390625 348.707031 C 217.675781 348.652344 217.957031 348.566406 218.226562 348.453125 C 218.496094 348.34375 218.753906 348.203125 219 348.042969 C 219.242188 347.878906 219.46875 347.695312 219.675781 347.488281 C 219.882812 347.28125 220.066406 347.054688 220.230469 346.808594 C 220.394531 346.566406 220.53125 346.308594 220.640625 346.039062 C 220.753906 345.769531 220.839844 345.488281 220.894531 345.203125 C 220.953125 344.914062 220.980469 344.625 220.980469 344.332031 C 220.980469 344.039062 220.953125 343.746094 220.894531 343.460938 C 220.839844 343.171875 220.753906 342.894531 220.640625 342.621094 C 220.53125 342.351562 220.394531 342.09375 220.230469 341.851562 C 220.066406 341.605469 219.882812 341.378906 219.675781 341.171875 C 219.46875 340.964844 219.242188 340.78125 219 340.617188 C 218.753906 340.457031 218.496094 340.316406 218.226562 340.207031 C 217.957031 340.09375 217.675781 340.007812 217.390625 339.953125 C 217.101562 339.894531 216.8125 339.867188 216.519531 339.867188 L 196.5625 339.867188 L 196.5625 335.402344 L 232.144531 335.402344 C 232.4375 335.402344 232.726562 335.375 233.015625 335.316406 C 233.300781 335.257812 233.582031 335.175781 233.851562 335.0625 C 234.121094 334.949219 234.378906 334.8125 234.625 334.648438 C 234.867188 334.488281 235.09375 334.300781 235.300781 334.09375 C 235.507812 333.886719 235.691406 333.660156 235.855469 333.417969 C 236.015625 333.175781 236.15625 332.917969 236.265625 332.644531 C 236.378906 332.375 236.464844 332.097656 236.519531 331.808594 C 236.578125 331.519531 236.605469 331.230469 236.605469 330.9375 C 236.605469 330.644531 236.578125 330.355469 236.519531 330.066406 C 236.464844 329.777344 236.378906 329.5 236.265625 329.230469 C 236.15625 328.957031 236.015625 328.699219 235.855469 328.457031 C 235.691406 328.214844 235.507812 327.988281 235.300781 327.78125 C 235.09375 327.574219 234.867188 327.386719 234.621094 327.226562 C 234.378906 327.0625 234.121094 326.925781 233.851562 326.8125 C 233.582031 326.699219 233.300781 326.617188 233.015625 326.558594 C 232.726562 326.5 232.4375 326.472656 232.144531 326.472656 Z M 71.429688 299.6875 L 80.355469 299.6875 C 80.945312 299.6875 81.523438 299.628906 82.097656 299.515625 C 82.675781 299.402344 83.230469 299.230469 83.773438 299.007812 C 84.316406 298.785156 84.832031 298.507812 85.316406 298.183594 C 85.804688 297.855469 86.257812 297.488281 86.671875 297.074219 C 87.085938 296.65625 87.457031 296.207031 87.78125 295.71875 C 88.105469 295.230469 88.382812 294.71875 88.605469 294.175781 C 88.832031 293.632812 89 293.074219 89.113281 292.5 C 89.230469 291.925781 89.285156 291.34375 89.285156 290.757812 L 89.285156 281.832031 C 89.285156 281.242188 89.230469 280.664062 89.113281 280.089844 C 89 279.511719 88.832031 278.957031 88.605469 278.414062 C 88.382812 277.871094 88.105469 277.355469 87.78125 276.871094 C 87.457031 276.382812 87.085938 275.929688 86.671875 275.515625 C 86.257812 275.101562 85.804688 274.730469 85.316406 274.40625 C 84.832031 274.082031 84.316406 273.804688 83.773438 273.582031 C 83.230469 273.355469 82.675781 273.1875 82.097656 273.074219 C 81.523438 272.957031 80.945312 272.902344 80.355469 272.902344 L 71.429688 272.902344 C 70.84375 272.902344 70.261719 272.957031 69.6875 273.074219 C 69.113281 273.1875 68.554688 273.355469 68.011719 273.582031 C 67.46875 273.804688 66.957031 274.082031 66.46875 274.40625 C 65.980469 274.730469 65.53125 275.101562 65.113281 275.515625 C 64.699219 275.929688 64.332031 276.382812 64.003906 276.871094 C 63.679688 277.355469 63.402344 277.871094 63.179688 278.414062 C 62.957031 278.957031 62.785156 279.511719 62.671875 280.089844 C 62.558594 280.664062 62.5 281.242188 62.5 281.832031 L 62.5 290.757812 C 62.5 291.34375 62.558594 291.925781 62.671875 292.5 C 62.785156 293.074219 62.957031 293.632812 63.179688 294.175781 C 63.402344 294.71875 63.679688 295.230469 64.003906 295.71875 C 64.332031 296.207031 64.699219 296.65625 65.113281 297.074219 C 65.53125 297.488281 65.980469 297.855469 66.46875 298.183594 C 66.957031 298.507812 67.46875 298.785156 68.011719 299.007812 C 68.554688 299.230469 69.113281 299.402344 69.6875 299.515625 C 70.261719 299.628906 70.84375 299.6875 71.429688 299.6875 Z M 71.429688 281.832031 L 80.355469 281.832031 L 80.355469 290.757812 L 71.429688 290.757812 Z M 71.429688 281.832031 " fill-opacity="1" fill-rule="nonzero"/><path fill="#2d4356" d="M 111.605469 299.6875 L 120.535156 299.6875 C 121.121094 299.6875 121.703125 299.628906 122.277344 299.515625 C 122.851562 299.402344 123.410156 299.230469 123.953125 299.007812 C 124.492188 298.785156 125.007812 298.507812 125.496094 298.183594 C 125.984375 297.855469 126.433594 297.488281 126.847656 297.074219 C 127.265625 296.65625 127.632812 296.207031 127.960938 295.71875 C 128.285156 295.230469 128.558594 294.71875 128.785156 294.175781 C 129.007812 293.632812 129.179688 293.074219 129.292969 292.5 C 129.40625 291.925781 129.464844 291.34375 129.464844 290.757812 L 129.464844 281.832031 C 129.464844 281.242188 129.40625 280.664062 129.292969 280.089844 C 129.179688 279.511719 129.007812 278.957031 128.785156 278.414062 C 128.558594 277.871094 128.285156 277.355469 127.960938 276.871094 C 127.632812 276.382812 127.265625 275.929688 126.847656 275.515625 C 126.433594 275.101562 125.984375 274.730469 125.496094 274.40625 C 125.007812 274.082031 124.492188 273.804688 123.953125 273.582031 C 123.410156 273.355469 122.851562 273.1875 122.277344 273.074219 C 121.703125 272.957031 121.121094 272.902344 120.535156 272.902344 L 111.605469 272.902344 C 111.019531 272.902344 110.441406 272.957031 109.867188 273.074219 C 109.289062 273.1875 108.730469 273.355469 108.191406 273.582031 C 107.648438 273.804688 107.132812 274.082031 106.648438 274.40625 C 106.160156 274.730469 105.707031 275.101562 105.292969 275.515625 C 104.878906 275.929688 104.507812 276.382812 104.183594 276.871094 C 103.859375 277.355469 103.582031 277.871094 103.359375 278.414062 C 103.132812 278.957031 102.964844 279.511719 102.851562 280.089844 C 102.734375 280.664062 102.679688 281.242188 102.679688 281.832031 L 102.679688 290.757812 C 102.679688 291.34375 102.734375 291.925781 102.851562 292.5 C 102.964844 293.074219 103.132812 293.632812 103.359375 294.175781 C 103.582031 294.71875 103.859375 295.230469 104.183594 295.71875 C 104.507812 296.207031 104.878906 296.65625 105.292969 297.074219 C 105.707031 297.488281 106.160156 297.855469 106.648438 298.183594 C 107.132812 298.507812 107.648438 298.785156 108.191406 299.007812 C 108.730469 299.230469 109.289062 299.402344 109.867188 299.515625 C 110.441406 299.628906 111.019531 299.6875 111.605469 299.6875 Z M 111.605469 281.832031 L 120.535156 281.832031 L 120.535156 290.757812 L 111.605469 290.757812 Z M 111.605469 281.832031 " fill-opacity="1" fill-rule="nonzero"/><path fill="#004aad" d="M 151.785156 299.6875 L 160.714844 299.6875 C 161.300781 299.6875 161.882812 299.628906 162.457031 299.515625 C 163.03125 299.402344 163.589844 299.230469 164.132812 299.007812 C 164.671875 298.785156 165.1875 298.507812 165.675781 298.183594 C 166.164062 297.855469 166.613281 297.488281 167.027344 297.074219 C 167.441406 296.65625 167.8125 296.207031 168.136719 295.71875 C 168.464844 295.230469 168.738281 294.71875 168.964844 294.175781 C 169.1875 293.632812 169.355469 293.074219 169.472656 292.5 C 169.585938 291.925781 169.644531 291.34375 169.644531 290.757812 L 169.644531 281.832031 C 169.644531 281.242188 169.585938 280.664062 169.472656 280.089844 C 169.355469 279.511719 169.1875 278.957031 168.964844 278.414062 C 168.738281 277.871094 168.464844 277.355469 168.136719 276.871094 C 167.8125 276.382812 167.441406 275.929688 167.027344 275.515625 C 166.613281 275.101562 166.164062 274.730469 165.675781 274.40625 C 165.1875 274.082031 164.671875 273.804688 164.132812 273.582031 C 163.589844 273.355469 163.03125 273.1875 162.457031 273.074219 C 161.882812 272.957031 161.300781 272.902344 160.714844 272.902344 L 151.785156 272.902344 C 151.199219 272.902344 150.617188 272.957031 150.042969 273.074219 C 149.46875 273.1875 148.910156 273.355469 148.367188 273.582031 C 147.828125 273.804688 147.3125 274.082031 146.824219 274.40625 C 146.335938 274.730469 145.886719 275.101562 145.472656 275.515625 C 145.058594 275.929688 144.6875 276.382812 144.363281 276.871094 C 144.035156 277.355469 143.761719 277.871094 143.535156 278.414062 C 143.3125 278.957031 143.144531 279.511719 143.027344 280.089844 C 142.914062 280.664062 142.855469 281.242188 142.855469 281.832031 L 142.855469 290.757812 C 142.855469 291.34375 142.914062 291.925781 143.027344 292.5 C 143.144531 293.074219 143.3125 293.632812 143.535156 294.175781 C 143.761719 294.71875 144.035156 295.230469 144.363281 295.71875 C 144.6875 296.207031 145.058594 296.65625 145.472656 297.074219 C 145.886719 297.488281 146.335938 297.855469 146.824219 298.183594 C 147.3125 298.507812 147.828125 298.785156 148.367188 299.007812 C 148.910156 299.230469 149.46875 299.402344 150.042969 299.515625 C 150.617188 299.628906 151.199219 299.6875 151.785156 299.6875 Z M 151.785156 281.832031 L 160.714844 281.832031 L 160.714844 290.757812 L 151.785156 290.757812 Z M 151.785156 281.832031 " fill-opacity="1" fill-rule="nonzero"/><path fill="#2d4356" d="M 191.964844 299.6875 L 200.894531 299.6875 C 201.480469 299.6875 202.058594 299.628906 202.632812 299.515625 C 203.210938 299.402344 203.769531 299.230469 204.308594 299.007812 C 204.851562 298.785156 205.367188 298.507812 205.851562 298.183594 C 206.339844 297.855469 206.792969 297.488281 207.207031 297.074219 C 207.621094 296.65625 207.992188 296.207031 208.316406 295.71875 C 208.640625 295.230469 208.917969 294.71875 209.140625 294.175781 C 209.367188 293.632812 209.535156 293.074219 209.648438 292.5 C 209.765625 291.925781 209.820312 291.34375 209.820312 290.757812 L 209.820312 281.832031 C 209.820312 281.242188 209.765625 280.664062 209.648438 280.089844 C 209.535156 279.511719 209.367188 278.957031 209.140625 278.414062 C 208.917969 277.871094 208.640625 277.355469 208.316406 276.871094 C 207.992188 276.382812 207.621094 275.929688 207.207031 275.515625 C 206.792969 275.101562 206.339844 274.730469 205.851562 274.40625 C 205.367188 274.082031 204.851562 273.804688 204.308594 273.582031 C 203.769531 273.355469 203.210938 273.1875 202.632812 273.074219 C 202.058594 272.957031 201.480469 272.902344 200.894531 272.902344 L 191.964844 272.902344 C 191.378906 272.902344 190.796875 272.957031 190.222656 273.074219 C 189.648438 273.1875 189.089844 273.355469 188.546875 273.582031 C 188.003906 273.804688 187.492188 274.082031 187.003906 274.40625 C 186.515625 274.730469 186.066406 275.101562 185.652344 275.515625 C 185.234375 275.929688 184.867188 276.382812 184.539062 276.871094 C 184.214844 277.355469 183.941406 277.871094 183.714844 278.414062 C 183.492188 278.957031 183.320312 279.511719 183.207031 280.089844 C 183.09375 280.664062 183.035156 281.242188 183.035156 281.832031 L 183.035156 290.757812 C 183.035156 291.34375 183.09375 291.925781 183.207031 292.5 C 183.320312 293.074219 183.492188 293.632812 183.714844 294.175781 C 183.941406 294.71875 184.214844 295.230469 184.539062 295.71875 C 184.867188 296.207031 185.234375 296.65625 185.652344 297.074219 C 186.066406 297.488281 186.515625 297.855469 187.003906 298.183594 C 187.492188 298.507812 188.003906 298.785156 188.546875 299.007812 C 189.089844 299.230469 189.648438 299.402344 190.222656 299.515625 C 190.796875 299.628906 191.378906 299.6875 191.964844 299.6875 Z M 191.964844 281.832031 L 200.894531 281.832031 L 200.894531 290.757812 L 191.964844 290.757812 Z M 191.964844 281.832031 " fill-opacity="1" fill-rule="nonzero"/><path fill="#004aad" d="M 232.144531 299.6875 L 241.070312 299.6875 C 241.65625 299.6875 242.238281 299.628906 242.8125 299.515625 C 243.386719 299.402344 243.945312 299.230469 244.488281 299.007812 C 245.03125 298.785156 245.542969 298.507812 246.03125 298.183594 C 246.519531 297.855469 246.96875 297.488281 247.386719 297.074219 C 247.800781 296.65625 248.167969 296.207031 248.496094 295.71875 C 248.820312 295.230469 249.097656 294.71875 249.320312 294.175781 C 249.542969 293.632812 249.714844 293.074219 249.828125 292.5 C 249.941406 291.925781 250 291.34375 250 290.757812 L 250 281.832031 C 250 281.242188 249.941406 280.664062 249.828125 280.089844 C 249.714844 279.511719 249.542969 278.957031 249.320312 278.414062 C 249.097656 277.871094 248.820312 277.355469 248.496094 276.871094 C 248.167969 276.382812 247.800781 275.929688 247.386719 275.515625 C 246.96875 275.101562 246.519531 274.730469 246.03125 274.40625 C 245.542969 274.082031 245.03125 273.804688 244.488281 273.582031 C 243.945312 273.355469 243.386719 273.1875 242.8125 273.074219 C 242.238281 272.957031 241.65625 272.902344 241.070312 272.902344 L 232.144531 272.902344 C 231.554688 272.902344 230.976562 272.957031 230.402344 273.074219 C 229.824219 273.1875 229.269531 273.355469 228.726562 273.582031 C 228.183594 273.804688 227.667969 274.082031 227.183594 274.40625 C 226.695312 274.730469 226.242188 275.101562 225.828125 275.515625 C 225.414062 275.929688 225.042969 276.382812 224.71875 276.871094 C 224.394531 277.355469 224.117188 277.871094 223.894531 278.414062 C 223.667969 278.957031 223.5 279.511719 223.386719 280.089844 C 223.269531 280.664062 223.214844 281.242188 223.214844 281.832031 L 223.214844 290.757812 C 223.214844 291.34375 223.269531 291.925781 223.386719 292.5 C 223.5 293.074219 223.667969 293.632812 223.894531 294.175781 C 224.117188 294.71875 224.394531 295.230469 224.71875 295.71875 C 225.042969 296.207031 225.414062 296.65625 225.828125 297.074219 C 226.242188 297.488281 226.695312 297.855469 227.183594 298.183594 C 227.667969 298.507812 228.183594 298.785156 228.726562 299.007812 C 229.269531 299.230469 229.824219 299.402344 230.402344 299.515625 C 230.976562 299.628906 231.554688 299.6875 232.144531 299.6875 Z M 232.144531 281.832031 L 241.070312 281.832031 L 241.070312 290.757812 L 232.144531 290.757812 Z M 232.144531 281.832031 " fill-opacity="1" fill-rule="nonzero"/><path fill="#2d4356" d="M 272.320312 299.6875 L 281.25 299.6875 C 281.835938 299.6875 282.417969 299.628906 282.992188 299.515625 C 283.566406 299.402344 284.125 299.230469 284.667969 299.007812 C 285.207031 298.785156 285.722656 298.507812 286.210938 298.183594 C 286.699219 297.855469 287.148438 297.488281 287.5625 297.074219 C 287.976562 296.65625 288.347656 296.207031 288.671875 295.71875 C 289 295.230469 289.273438 294.71875 289.5 294.175781 C 289.722656 293.632812 289.894531 293.074219 290.007812 292.5 C 290.121094 291.925781 290.179688 291.34375 290.179688 290.757812 L 290.179688 281.832031 C 290.179688 281.242188 290.121094 280.664062 290.007812 280.089844 C 289.894531 279.511719 289.722656 278.957031 289.5 278.414062 C 289.273438 277.871094 289 277.355469 288.671875 276.871094 C 288.347656 276.382812 287.976562 275.929688 287.5625 275.515625 C 287.148438 275.101562 286.699219 274.730469 286.210938 274.40625 C 285.722656 274.082031 285.207031 273.804688 284.667969 273.582031 C 284.125 273.355469 283.566406 273.1875 282.992188 273.074219 C 282.417969 272.957031 281.835938 272.902344 281.25 272.902344 L 272.320312 272.902344 C 271.734375 272.902344 271.15625 272.957031 270.578125 273.074219 C 270.003906 273.1875 269.445312 273.355469 268.90625 273.582031 C 268.363281 273.804688 267.847656 274.082031 267.359375 274.40625 C 266.875 274.730469 266.421875 275.101562 266.007812 275.515625 C 265.59375 275.929688 265.222656 276.382812 264.898438 276.871094 C 264.570312 277.355469 264.296875 277.871094 264.074219 278.414062 C 263.847656 278.957031 263.679688 279.511719 263.5625 280.089844 C 263.449219 280.664062 263.394531 281.242188 263.394531 281.832031 L 263.394531 290.757812 C 263.394531 291.34375 263.449219 291.925781 263.5625 292.5 C 263.679688 293.074219 263.847656 293.632812 264.074219 294.175781 C 264.296875 294.71875 264.570312 295.230469 264.898438 295.71875 C 265.222656 296.207031 265.59375 296.65625 266.007812 297.074219 C 266.421875 297.488281 266.875 297.855469 267.359375 298.183594 C 267.847656 298.507812 268.363281 298.785156 268.90625 299.007812 C 269.445312 299.230469 270.003906 299.402344 270.578125 299.515625 C 271.15625 299.628906 271.734375 299.6875 272.320312 299.6875 Z M 272.320312 281.832031 L 281.25 281.832031 L 281.25 290.757812 L 272.320312 290.757812 Z M 272.320312 281.832031 " fill-opacity="1" fill-rule="nonzero"/><path fill="#004aad" d="M 312.5 299.6875 L 321.429688 299.6875 C 322.015625 299.6875 322.59375 299.628906 323.171875 299.515625 C 323.746094 299.402344 324.304688 299.230469 324.84375 299.007812 C 325.386719 298.785156 325.902344 298.507812 326.390625 298.183594 C 326.875 297.855469 327.328125 297.488281 327.742188 297.074219 C 328.15625 296.65625 328.527344 296.207031 328.851562 295.71875 C 329.179688 295.230469 329.453125 294.71875 329.675781 294.175781 C 329.902344 293.632812 330.070312 293.074219 330.183594 292.5 C 330.300781 291.925781 330.355469 291.34375 330.355469 290.757812 L 330.355469 281.832031 C 330.355469 281.242188 330.300781 280.664062 330.183594 280.089844 C 330.070312 279.511719 329.902344 278.957031 329.675781 278.414062 C 329.453125 277.871094 329.179688 277.355469 328.851562 276.871094 C 328.527344 276.382812 328.15625 275.929688 327.742188 275.515625 C 327.328125 275.101562 326.875 274.730469 326.390625 274.40625 C 325.902344 274.082031 325.386719 273.804688 324.84375 273.582031 C 324.304688 273.355469 323.746094 273.1875 323.171875 273.074219 C 322.59375 272.957031 322.015625 272.902344 321.429688 272.902344 L 312.5 272.902344 C 311.914062 272.902344 311.332031 272.957031 310.757812 273.074219 C 310.183594 273.1875 309.625 273.355469 309.082031 273.582031 C 308.542969 273.804688 308.027344 274.082031 307.539062 274.40625 C 307.050781 274.730469 306.601562 275.101562 306.1875 275.515625 C 305.773438 275.929688 305.402344 276.382812 305.074219 276.871094 C 304.75 277.355469 304.476562 277.871094 304.25 278.414062 C 304.027344 278.957031 303.855469 279.511719 303.742188 280.089844 C 303.628906 280.664062 303.570312 281.242188 303.570312 281.832031 L 303.570312 290.757812 C 303.570312 291.34375 303.628906 291.925781 303.742188 292.5 C 303.855469 293.074219 304.027344 293.632812 304.25 294.175781 C 304.476562 294.71875 304.75 295.230469 305.074219 295.71875 C 305.402344 296.207031 305.773438 296.65625 306.1875 297.074219 C 306.601562 297.488281 307.050781 297.855469 307.539062 298.183594 C 308.027344 298.507812 308.542969 298.785156 309.082031 299.007812 C 309.625 299.230469 310.183594 299.402344 310.757812 299.515625 C 311.332031 299.628906 311.914062 299.6875 312.5 299.6875 Z M 312.5 281.832031 L 321.429688 281.832031 L 321.429688 290.757812 L 312.5 290.757812 Z M 312.5 281.832031 " fill-opacity="1" fill-rule="nonzero"/><path fill="#2d4356" d="M 8.929688 313.078125 C 8.929688 313.371094 8.898438 313.660156 8.84375 313.949219 C 8.785156 314.238281 8.699219 314.515625 8.589844 314.785156 C 8.476562 315.058594 8.339844 315.316406 8.175781 315.558594 C 8.011719 315.800781 7.828125 316.027344 7.621094 316.234375 C 7.414062 316.441406 7.1875 316.628906 6.945312 316.789062 C 6.699219 316.953125 6.445312 317.089844 6.171875 317.203125 C 5.902344 317.316406 5.621094 317.398438 5.335938 317.457031 C 5.046875 317.515625 4.757812 317.542969 4.464844 317.542969 C 4.171875 317.542969 3.878906 317.515625 3.59375 317.457031 C 3.304688 317.398438 3.027344 317.316406 2.757812 317.203125 C 2.484375 317.089844 2.226562 316.953125 1.984375 316.789062 C 1.742188 316.628906 1.515625 316.441406 1.308594 316.234375 C 1.101562 316.027344 0.914062 315.800781 0.753906 315.558594 C 0.589844 315.316406 0.453125 315.058594 0.339844 314.785156 C 0.226562 314.515625 0.144531 314.238281 0.0859375 313.949219 C 0.0273438 313.660156 0 313.371094 0 313.078125 C 0 312.785156 0.0273438 312.496094 0.0859375 312.207031 C 0.144531 311.917969 0.226562 311.640625 0.339844 311.371094 C 0.453125 311.097656 0.589844 310.839844 0.753906 310.597656 C 0.914062 310.355469 1.101562 310.128906 1.308594 309.921875 C 1.515625 309.714844 1.742188 309.527344 1.984375 309.367188 C 2.226562 309.203125 2.484375 309.066406 2.757812 308.953125 C 3.027344 308.839844 3.304688 308.757812 3.59375 308.699219 C 3.878906 308.640625 4.171875 308.613281 4.464844 308.613281 C 4.757812 308.613281 5.046875 308.640625 5.335938 308.699219 C 5.621094 308.757812 5.902344 308.839844 6.171875 308.953125 C 6.445312 309.066406 6.699219 309.203125 6.945312 309.367188 C 7.1875 309.527344 7.414062 309.714844 7.621094 309.921875 C 7.828125 310.128906 8.011719 310.355469 8.175781 310.597656 C 8.339844 310.839844 8.476562 311.097656 8.589844 311.371094 C 8.699219 311.640625 8.785156 311.917969 8.84375 312.207031 C 8.898438 312.496094 8.929688 312.785156 8.929688 313.078125 Z M 8.929688 313.078125 " fill-opacity="1" fill-rule="nonzero"/><path fill="#2d4356" d="M 24.554688 308.617188 L 17.855469 308.617188 C 17.5625 308.617188 17.273438 308.644531 16.984375 308.703125 C 16.699219 308.757812 16.417969 308.84375 16.148438 308.957031 C 15.878906 309.066406 15.621094 309.207031 15.375 309.367188 C 15.132812 309.53125 14.90625 309.714844 14.699219 309.921875 C 14.492188 310.128906 14.308594 310.355469 14.144531 310.601562 C 13.980469 310.84375 13.84375 311.101562 13.734375 311.371094 C 13.621094 311.644531 13.535156 311.921875 13.480469 312.210938 C 13.421875 312.496094 13.394531 312.789062 13.394531 313.082031 C 13.394531 313.375 13.421875 313.664062 13.480469 313.953125 C 13.535156 314.238281 13.621094 314.519531 13.734375 314.789062 C 13.84375 315.058594 13.980469 315.316406 14.144531 315.558594 C 14.308594 315.804688 14.492188 316.03125 14.699219 316.238281 C 14.90625 316.445312 15.132812 316.628906 15.375 316.792969 C 15.621094 316.953125 15.878906 317.09375 16.148438 317.203125 C 16.417969 317.316406 16.699219 317.402344 16.984375 317.457031 C 17.273438 317.515625 17.5625 317.542969 17.855469 317.542969 L 24.554688 317.542969 C 24.847656 317.542969 25.136719 317.515625 25.425781 317.457031 C 25.710938 317.402344 25.992188 317.316406 26.261719 317.203125 C 26.53125 317.09375 26.789062 316.953125 27.035156 316.792969 C 27.277344 316.628906 27.503906 316.445312 27.710938 316.238281 C 27.917969 316.03125 28.101562 315.804688 28.265625 315.558594 C 28.429688 315.316406 28.566406 315.058594 28.679688 314.789062 C 28.789062 314.519531 28.875 314.238281 28.933594 313.953125 C 28.988281 313.664062 29.019531 313.375 29.019531 313.082031 C 29.019531 312.789062 28.988281 312.496094 28.933594 312.210938 C 28.875 311.921875 28.789062 311.644531 28.679688 311.371094 C 28.566406 311.101562 28.429688 310.84375 28.265625 310.601562 C 28.101562 310.355469 27.917969 310.128906 27.710938 309.921875 C 27.503906 309.714844 27.277344 309.53125 27.035156 309.367188 C 26.789062 309.207031 26.53125 309.066406 26.261719 308.957031 C 25.992188 308.84375 25.710938 308.757812 25.425781 308.703125 C 25.136719 308.644531 24.847656 308.617188 24.554688 308.617188 Z M 357.144531 308.617188 L 350.445312 308.617188 C 350.152344 308.617188 349.863281 308.644531 349.574219 308.703125 C 349.289062 308.757812 349.007812 308.84375 348.738281 308.957031 C 348.46875 309.066406 348.210938 309.207031 347.964844 309.367188 C 347.722656 309.53125 347.496094 309.714844 347.289062 309.921875 C 347.082031 310.128906 346.898438 310.355469 346.734375 310.601562 C 346.570312 310.84375 346.433594 311.101562 346.320312 311.371094 C 346.210938 311.644531 346.125 311.921875 346.066406 312.210938 C 346.011719 312.496094 345.980469 312.789062 345.980469 313.082031 C 345.980469 313.375 346.011719 313.664062 346.066406 313.953125 C 346.125 314.238281 346.210938 314.519531 346.320312 314.789062 C 346.433594 315.058594 346.570312 315.316406 346.734375 315.558594 C 346.898438 315.804688 347.082031 316.03125 347.289062 316.238281 C 347.496094 316.445312 347.722656 316.628906 347.964844 316.792969 C 348.210938 316.953125 348.46875 317.09375 348.738281 317.203125 C 349.007812 317.316406 349.289062 317.402344 349.574219 317.457031 C 349.863281 317.515625 350.152344 317.542969 350.445312 317.542969 L 357.144531 317.542969 C 357.4375 317.542969 357.726562 317.515625 358.015625 317.457031 C 358.300781 317.402344 358.582031 317.316406 358.851562 317.203125 C 359.121094 317.09375 359.378906 316.953125 359.621094 316.792969 C 359.867188 316.628906 360.09375 316.445312 360.300781 316.238281 C 360.507812 316.03125 360.691406 315.804688 360.855469 315.558594 C 361.015625 315.316406 361.15625 315.058594 361.265625 314.789062 C 361.378906 314.519531 361.464844 314.238281 361.519531 313.953125 C 361.578125 313.664062 361.605469 313.375 361.605469 313.082031 C 361.605469 312.789062 361.578125 312.496094 361.519531 312.210938 C 361.464844 311.921875 361.378906 311.644531 361.265625 311.371094 C 361.15625 311.101562 361.015625 310.84375 360.855469 310.601562 C 360.691406 310.355469 360.507812 310.128906 360.300781 309.921875 C 360.09375 309.714844 359.867188 309.53125 359.621094 309.367188 C 359.378906 309.207031 359.121094 309.066406 358.851562 308.957031 C 358.582031 308.84375 358.300781 308.757812 358.015625 308.703125 C 357.726562 308.644531 357.4375 308.617188 357.144531 308.617188 Z M 357.144531 308.617188 " fill-opacity="1" fill-rule="nonzero"/><path fill="#2d4356" d="M 375 313.078125 C 375 313.371094 374.972656 313.660156 374.914062 313.949219 C 374.855469 314.238281 374.773438 314.515625 374.660156 314.785156 C 374.546875 315.058594 374.410156 315.316406 374.246094 315.558594 C 374.085938 315.800781 373.898438 316.027344 373.691406 316.234375 C 373.484375 316.441406 373.257812 316.628906 373.015625 316.789062 C 372.773438 316.953125 372.515625 317.089844 372.242188 317.203125 C 371.972656 317.316406 371.695312 317.398438 371.40625 317.457031 C 371.117188 317.515625 370.828125 317.542969 370.535156 317.542969 C 370.242188 317.542969 369.953125 317.515625 369.664062 317.457031 C 369.378906 317.398438 369.097656 317.316406 368.828125 317.203125 C 368.554688 317.089844 368.300781 316.953125 368.054688 316.789062 C 367.8125 316.628906 367.585938 316.441406 367.378906 316.234375 C 367.171875 316.027344 366.988281 315.800781 366.824219 315.558594 C 366.660156 315.316406 366.523438 315.058594 366.410156 314.785156 C 366.300781 314.515625 366.214844 314.238281 366.15625 313.949219 C 366.101562 313.660156 366.070312 313.371094 366.070312 313.078125 C 366.070312 312.785156 366.101562 312.496094 366.15625 312.207031 C 366.214844 311.917969 366.300781 311.640625 366.410156 311.371094 C 366.523438 311.097656 366.660156 310.839844 366.824219 310.597656 C 366.988281 310.355469 367.171875 310.128906 367.378906 309.921875 C 367.585938 309.714844 367.8125 309.527344 368.054688 309.367188 C 368.300781 309.203125 368.554688 309.066406 368.828125 308.953125 C 369.097656 308.839844 369.378906 308.757812 369.664062 308.699219 C 369.953125 308.640625 370.242188 308.613281 370.535156 308.613281 C 370.828125 308.613281 371.117188 308.640625 371.40625 308.699219 C 371.695312 308.757812 371.972656 308.839844 372.242188 308.953125 C 372.515625 309.066406 372.773438 309.203125 373.015625 309.367188 C 373.257812 309.527344 373.484375 309.714844 373.691406 309.921875 C 373.898438 310.128906 374.085938 310.355469 374.246094 310.597656 C 374.410156 310.839844 374.546875 311.097656 374.660156 311.371094 C 374.773438 311.640625 374.855469 311.917969 374.914062 312.207031 C 374.972656 312.496094 375 312.785156 375 313.078125 Z M 375 313.078125 " fill-opacity="1" fill-rule="nonzero"/><path fill="#2d4356" d="M 336.429688 308.617188 L 38.570312 308.617188 C 38.253906 308.574219 37.933594 308.566406 37.617188 308.59375 C 37.296875 308.621094 36.984375 308.679688 36.679688 308.773438 C 36.371094 308.867188 36.078125 308.992188 35.796875 309.144531 C 35.519531 309.300781 35.257812 309.484375 35.019531 309.695312 C 34.777344 309.90625 34.5625 310.140625 34.371094 310.398438 C 34.179688 310.65625 34.019531 310.929688 33.886719 311.222656 C 33.753906 311.515625 33.65625 311.816406 33.585938 312.128906 C 33.519531 312.445312 33.484375 312.761719 33.484375 313.082031 C 33.484375 313.402344 33.519531 313.71875 33.585938 314.03125 C 33.65625 314.34375 33.753906 314.644531 33.886719 314.9375 C 34.019531 315.230469 34.179688 315.503906 34.371094 315.761719 C 34.5625 316.019531 34.777344 316.253906 35.019531 316.464844 C 35.257812 316.675781 35.519531 316.859375 35.796875 317.015625 C 36.078125 317.171875 36.371094 317.292969 36.679688 317.386719 C 36.984375 317.480469 37.296875 317.539062 37.617188 317.566406 C 37.933594 317.59375 38.253906 317.585938 38.570312 317.542969 L 336.429688 317.542969 C 336.746094 317.585938 337.066406 317.59375 337.382812 317.566406 C 337.703125 317.539062 338.015625 317.480469 338.320312 317.386719 C 338.628906 317.292969 338.921875 317.171875 339.203125 317.015625 C 339.480469 316.859375 339.742188 316.675781 339.980469 316.464844 C 340.222656 316.253906 340.4375 316.019531 340.628906 315.761719 C 340.820312 315.503906 340.980469 315.230469 341.113281 314.9375 C 341.246094 314.644531 341.34375 314.34375 341.414062 314.03125 C 341.480469 313.71875 341.515625 313.402344 341.515625 313.082031 C 341.515625 312.761719 341.480469 312.445312 341.414062 312.128906 C 341.34375 311.816406 341.246094 311.515625 341.113281 311.222656 C 340.980469 310.929688 340.820312 310.65625 340.628906 310.398438 C 340.4375 310.140625 340.222656 309.90625 339.980469 309.695312 C 339.742188 309.484375 339.480469 309.300781 339.203125 309.144531 C 338.921875 308.992188 338.628906 308.867188 338.320312 308.773438 C 338.015625 308.679688 337.703125 308.621094 337.382812 308.59375 C 337.066406 308.566406 336.746094 308.574219 336.429688 308.617188 Z M 336.429688 308.617188 " fill-opacity="1" fill-rule="nonzero"/></svg>
